<?xml version="1.0" encoding="UTF-8"?>
<svg width="87px" height="87px" viewBox="0 0 87 87" version="1.1" xmlns="http://www.w3.org/2000/svg" xmlns:xlink="http://www.w3.org/1999/xlink">
    <!-- Generator: Sketch 54.1 (76490) - https://sketchapp.com -->
    <title>ic_confianza</title>
    <desc>Created with Sketch.</desc>
    <g id="ic_confianza" stroke="none" stroke-width="1" fill="none" fill-rule="evenodd">
        <g transform="translate(1.000000, 17.000000)" fill="#B99962" fill-rule="nonzero" id="Shape">
            <path d="M56.1759893,13.3819072 L43.9623346,9.68816793 C43.0454076,9.4124353 42.1030662,9.31535583 41.1694192,9.34973801 L41.1694192,9.3180523 L26.3246992,9.3180523 L1.32059678,0.942363706 C0.796911568,0.766943521 0.230174665,1.04926811 0.0547544794,1.57295332 C0.0202307118,1.67601778 0.00274071487,1.78402136 0.00297271717,1.89271414 L0.0782759549,37.1721834 C0.0790804143,37.5490715 0.291717655,37.8934955 0.628294211,38.0630878 L6.66766287,41.1061712 C7.16087464,41.354688 7.76216444,41.1563236 8.01068124,40.6631118 C8.02286975,40.6389222 8.0340704,40.6142474 8.04425548,40.5891484 L12.1106591,30.568345 L18.646857,33.2043223 L20.3416003,28.934848 L22.796102,31.4090262 L20.5061254,33.7180346 C19.7102516,34.5202885 19.2541288,35.629961 19.2541288,36.7652515 C19.2541288,39.0884172 21.0919956,40.977422 23.3779595,41.0589957 C23.4575468,43.3107002 25.2532792,45.1208279 27.4870764,45.2010533 C27.5666637,47.4527578 29.3623961,49.2628855 31.5961934,49.3431109 C31.678456,51.6474002 33.5511005,53.5 35.8564594,53.5 C36.9820525,53.5 38.0835688,53.0402209 38.8787738,52.2379668 L41.1694192,49.9296326 L42.0896902,50.857281 C42.8855642,51.659535 43.9864115,52.1193141 45.1126734,52.1193141 C47.4180325,52.1193141 49.2913457,50.2667143 49.3722708,47.962425 C51.6060679,47.8821996 53.4018003,46.0720719 53.4813878,43.8203674 C55.7151849,43.740142 57.5109173,41.9300143 57.5905047,39.6783098 C59.8764684,39.5953878 61.715004,37.7077313 61.715004,35.3845656 C61.715004,35.1883841 61.6835704,34.9948993 61.6574871,34.8000662 L63.6230948,32.8187011 L65.2114987,36.0223237 L73.8149623,31.6854331 L78.498235,40.6983417 C78.7528858,41.1884146 79.3566037,41.3792618 79.8466765,41.1246109 C79.8798923,41.1073514 79.9121129,41.0882404 79.943186,41.0673683 L84.5575956,37.9678201 C84.834122,37.7820743 85,37.4708265 85,37.1377073 L85,3.45590056 C85,2.90361581 84.5522847,2.45590056 84,2.45590056 C83.8741193,2.45590056 83.7493704,2.47966762 83.632308,2.52595294 L56.1759893,13.3819072 Z M6.21717955,37.7920018 L2.81632352,36.0776052 L2.74743692,4.32992025 L17.7566822,9.35850226 L6.21717955,37.7920018 Z M17.1213206,29.6144043 L13.1466327,28.0125929 L20.3623332,10.2308691 L24.2888672,11.5468353 L17.1213206,29.6144043 Z M21.9935401,36.7652515 C21.9935401,36.3573829 22.156059,35.9589525 22.442306,35.6697364 L24.8506605,33.2427496 C25.1369076,32.954208 25.5328381,32.789712 25.9367943,32.789712 C26.7834972,32.789712 27.4723627,33.4847741 27.4723627,34.3375903 C27.4723627,34.7447849 27.3091751,35.1438895 27.0229281,35.4324311 L24.6152424,37.8600922 C24.3289953,38.148634 23.9330647,38.3124555 23.5291086,38.3124555 C22.6824059,38.3124555 21.9935401,37.6180677 21.9935401,36.7652515 Z M26.1026571,40.9073091 C26.1026571,40.4994405 26.2651759,40.1010101 26.551423,39.811794 L28.9597775,37.3848072 C29.2460245,37.0962656 29.6419551,36.9317696 30.0459112,36.9317696 C30.8926141,36.9317696 31.5814797,37.6268317 31.5814797,38.4796479 C31.5814797,38.8868425 31.4182921,39.2859471 31.132045,39.5744887 L28.7243593,42.0021498 C28.4381122,42.2906916 28.0421817,42.4545131 27.6382255,42.4545131 C26.7915228,42.4545131 26.1026571,41.7601253 26.1026571,40.9073091 Z M30.211774,45.0493667 C30.211774,44.6414981 30.3742929,44.2430677 30.6605399,43.9538516 L33.0688944,41.5268648 C33.3551415,41.2383232 33.751072,41.0738272 34.1550282,41.0738272 C35.0017311,41.0738272 35.6905966,41.7688893 35.6905966,42.6217055 C35.6905966,43.0289001 35.527409,43.4280047 35.241162,43.7165463 L32.8334762,46.1442074 C32.5472292,46.4327492 32.1512986,46.5965707 31.7473425,46.5965707 C30.9006397,46.5965707 30.211774,45.9021828 30.211774,45.0493667 Z M39.3502789,47.8586038 L36.9425932,50.286265 C36.6563461,50.5748068 36.2604156,50.7386283 35.8564594,50.7386283 C35.0097567,50.7386283 34.320891,50.0442404 34.320891,49.1914243 C34.320891,48.7835557 34.4834098,48.3851253 34.7696569,48.0959092 L37.1780114,45.6689224 C37.4642584,45.3803808 37.860189,45.2158848 38.2641451,45.2158848 C39.110848,45.2158848 39.7997136,45.9109469 39.7997136,46.7637631 C39.7997136,47.1709577 39.636526,47.5700622 39.3502789,47.8586038 Z M57.4400242,36.9317696 C57.0360681,36.9317696 56.6401375,36.7679481 56.3538904,36.4794064 L44.8772552,24.9100946 L42.9404058,26.8624707 L54.417041,38.4311082 C54.7032881,38.7203242 54.8664757,39.1187546 54.8664757,39.5266232 C54.8664757,40.3794394 54.1776102,41.0738272 53.3309073,41.0738272 C52.9269511,41.0738272 52.5310206,40.9100057 52.2447735,40.621464 L40.7681383,29.0521522 L38.8312889,31.0045283 L50.3079241,42.5731658 C50.5941712,42.8623818 50.7573588,43.2608122 50.7573588,43.6686808 C50.7573588,44.521497 50.0684932,45.2158848 49.2217903,45.2158848 C48.8178342,45.2158848 48.4219036,45.0520633 48.1356565,44.7635216 L36.6590213,33.1942098 L34.7221719,35.1465859 L46.1988072,46.7152234 C46.4850542,47.0044394 46.6482418,47.4028698 46.6482418,47.8107384 C46.6482418,48.6635546 45.9593763,49.3579424 45.1126734,49.3579424 C44.7087172,49.3579424 44.3127867,49.1941209 44.0265396,48.9055791 L42.481608,47.3475884 C42.5090288,47.1547778 42.5391249,46.961293 42.5391249,46.7637631 C42.5391249,44.4399233 40.7005894,42.5515926 38.4146256,42.4700189 C38.3350382,40.2183144 36.5393058,38.4081867 34.3055087,38.3279613 C34.2259212,36.0762568 32.4301888,34.2661291 30.1963917,34.1859037 C30.1141291,31.8816146 28.2421534,30.0283403 25.9367943,30.0283403 C25.742173,30.0283403 25.5502271,30.060026 25.3576122,30.0863184 L21.4471293,26.1444872 L27.0296162,12.079424 L35.1234529,12.079424 L30.0940649,17.1498042 C29.2854839,17.9628448 28.8420684,19.0455507 28.8420684,20.1970211 C28.8420684,22.5727716 30.7595226,24.5055968 33.1170481,24.5055968 C34.2426412,24.5055968 35.3441575,24.0458177 36.1393625,23.2435637 L39.76828,19.5848811 C40.5106497,18.8392567 41.8181568,18.8102676 42.5912915,19.5242063 L45.7935135,22.4831078 C46.8575768,23.4660375 48.040018,24.2837972 49.3053905,24.9242522 L58.526158,34.2890506 C58.8124051,34.5782666 58.9755927,34.976697 58.9755927,35.3845656 C58.9755927,36.2373818 58.2867271,36.9317696 57.4400242,36.9317696 L57.4400242,36.9317696 Z M60.3452983,32.2180218 L54.7153266,26.4997711 C55.2182654,26.5476367 55.725217,26.5766256 56.2361814,26.5766256 L56.2361814,23.8152539 C53.0473354,23.8152539 49.9955937,22.6186147 47.645425,20.4464613 L44.4425343,17.4889081 C42.6347635,15.8156356 39.5683083,15.8823778 37.8327681,17.6338532 L34.2045196,21.2918618 C33.9169348,21.5790552 33.5210043,21.7442251 33.1170481,21.7442251 C32.2703454,21.7442251 31.5814797,21.0498373 31.5814797,20.1970211 C31.5814797,19.7824108 31.7399856,19.394767 32.0302456,19.1015061 L37.2515796,13.8389896 C38.7858104,12.2924597 41.089832,11.7039153 43.1744865,12.3335836 L55.2744448,15.9922664 L62.3296327,30.2177802 L60.3452983,32.2180218 Z M66.4360744,32.3177981 L58.1315651,15.5742851 L64.1969267,13.1756132 L72.5435705,29.2388955 L66.4360744,32.3177981 Z M82.2605887,36.1935612 L80.0274602,37.694248 L66.7624496,12.1623461 L82.2605887,6.03487848 L82.2605887,36.1935612 Z"></path>
        </g>
    </g>
</svg>