<?xml version="1.0" encoding="UTF-8"?>
<svg width="87px" height="87px" viewBox="0 0 87 87" version="1.1" xmlns="http://www.w3.org/2000/svg" xmlns:xlink="http://www.w3.org/1999/xlink">
    <!-- Generator: Sketch 54.1 (76490) - https://sketchapp.com -->
    <title>ic_medida</title>
    <desc>Created with Sketch.</desc>
    <g id="ic_medida" stroke="none" stroke-width="1" fill="none" fill-rule="evenodd">
        <g transform="translate(7.000000, 7.000000)" fill="#B99962" fill-rule="nonzero" id="Shape">
            <path d="M1.44249513,73.9273118 L72.4132554,73.9273118 C72.9964517,73.9273118 73.5227369,73.5762671 73.7458729,73.0370218 C73.9690089,72.4977766 73.845608,71.8773909 73.4331444,71.4649275 L2.46238419,0.494730823 C2.04992088,0.0817037895 1.42953517,-0.041133614 0.890289961,0.182002351 C0.351608187,0.405138316 0,0.930860136 0,1.51461988 L0,72.4848167 C0,73.2815698 0.645741887,73.9273118 1.44249513,73.9273118 L1.44249513,73.9273118 Z M2.88499025,4.99689327 L14.4880604,16.5999635 L11.4272661,19.6590673 C10.8637914,20.222542 10.8637914,21.1359345 11.4272661,21.6994092 C11.9896139,22.2623203 12.9035697,22.2634473 13.4670443,21.6994092 L16.5278387,18.6397417 L22.6477369,24.7602035 L19.587506,27.8193074 C19.0240314,28.3827821 19.0240314,29.2961745 19.5869426,29.8596491 C20.1498538,30.4225603 21.0638098,30.4236872 21.6272844,29.8596491 L24.6880788,26.7999817 L30.8074134,32.91988 L27.7477461,35.9801109 C27.1842714,36.543022 27.1842714,37.4564144 27.7477461,38.0198891 C28.3112208,38.5833637 29.2240497,38.5833637 29.7875244,38.0198891 L32.8477553,34.9596583 L38.9676535,41.08012 L35.9079862,44.1403509 C35.3445115,44.7032621 35.3445115,45.6166545 35.9079862,46.1801291 C36.4714608,46.7436038 37.3842896,46.7436038 37.9477643,46.1801291 L41.0079952,43.1204618 L47.1278936,49.2397965 L44.0682261,52.3005908 C43.5047515,52.8640655 43.5047515,53.777458 44.0682261,54.3409327 C44.6317008,54.9038439 45.5450932,54.9038439 46.1085678,54.3403692 L49.1676717,51.2801383 L55.2875701,57.4000365 L52.2279026,60.4608309 C51.6649914,61.0243056 51.6649914,61.9376979 52.2284661,62.5006092 C52.7913773,63.0640838 53.7053332,63.0640838 54.2688079,62.5006092 L57.3279118,59.4398148 L68.9304185,71.0423216 L2.88499025,71.0423216 L2.88499025,4.99689327 Z"></path>
            <path d="M14.8678423,30.0641905 C14.455379,29.651727 13.8349933,29.528326 13.2957481,29.751462 C12.7570663,29.974598 12.4054581,30.5008832 12.4054581,31.0840795 L12.4054581,60.0793586 C12.4054581,60.8761117 13.0512,61.5218537 13.8479532,61.5218537 L42.8432321,61.5218537 C43.426992,61.5218537 43.9527139,61.170809 44.1764133,60.6315638 C44.3995492,60.092882 44.2755848,59.4719328 43.8636848,59.0594694 L14.8678423,30.0641905 Z M15.2904483,58.6374269 L15.2904483,34.5669164 L39.3609589,58.6374269 L15.2904483,58.6374269 Z"></path>
            <path d="M21.8966252,14.7737421 L62.3879142,55.2644677 C64.0783382,56.9560185 66.816825,56.9560185 68.508376,55.2644677 L72.5879326,51.1854746 C74.2744122,49.498995 74.2744122,46.7531828 72.5879326,45.0644493 L32.097207,4.57372377 C31.9388705,4.41538743 31.7455988,4.2959308 31.5331688,4.2254965 L19.2933723,0.145939973 C18.7755391,-0.026483345 18.2036123,0.108187135 17.8176322,0.494730823 C17.4310886,0.880710928 17.2964181,1.45207416 17.4688413,1.97047085 L21.5483978,14.2102675 C21.6193957,14.4226974 21.7382889,14.6154056 21.8966252,14.7737421 L21.8966252,14.7737421 Z M70.5470273,47.1042276 C71.1099385,47.6671388 71.1099385,48.5833485 70.5475907,49.1451327 L66.4685976,53.2246893 C65.905123,53.7881639 64.9917306,53.7887275 64.4276925,53.2246893 L61.3020985,50.0990954 L67.4219969,43.9786336 L70.5470273,47.1042276 Z M65.3822185,41.9388553 L59.2617568,48.0593172 L57.2219786,46.0189755 L63.3424404,39.8996405 L65.3822185,41.9388553 Z M32.031844,8.58848068 L61.3020985,37.8587354 L55.1822003,43.9791971 L25.9113822,14.7083791 L32.031844,8.58848068 Z M29.838237,6.70140408 L24.0243056,12.5147721 L21.1179033,3.79500186 L29.838237,6.70140408 Z"></path>
        </g>
    </g>
</svg>