<?xml version="1.0" encoding="UTF-8"?>
<svg width="87px" height="87px" viewBox="0 0 87 87" version="1.1" xmlns="http://www.w3.org/2000/svg" xmlns:xlink="http://www.w3.org/1999/xlink">
    <!-- Generator: Sketch 54.1 (76490) - https://sketchapp.com -->
    <title>ic_profesionalidad</title>
    <desc>Created with Sketch.</desc>
    <g id="ic_profesionalidad" stroke="none" stroke-width="1" fill="none" fill-rule="evenodd">
        <g transform="translate(17.000000, 7.000000)" fill="#B99962" fill-rule="nonzero" id="Shape">
            <path d="M47.6890977,51.3666953 C47.6888086,51.3665508 47.6885195,51.3662617 47.6880859,51.3661172 C46.5354492,50.618457 45.6079922,50.2636328 45.3883047,50.1847188 L38.6993984,47.3972891 L33.9834883,44.2852422 C33.9381055,44.2551797 33.8908438,44.2301758 33.8430039,44.2071953 L33.8430039,42.1908398 C37.4039648,40.4129609 39.9837031,36.956207 40.5404375,32.8633711 C43.4115508,32.6309648 45.6772227,30.2217734 45.6772227,27.2918359 C45.6772227,25.842043 45.1225117,24.519582 44.2145664,23.5250625 L44.2145664,16.3696094 C44.2148555,7.34319922 36.8716563,0 27.8455352,0 L26.5784297,0 C17.5530313,0 10.2102656,7.34319922 10.2102656,16.3691758 L10.2102656,23.4447031 C9.25780469,24.4478945 8.67144141,25.8021523 8.67144141,27.2914023 C8.67144141,30.2213398 10.9371133,32.6305312 13.8082266,32.8629375 C14.3651055,36.955918 16.9449883,40.4126719 20.5060938,42.1904063 L20.5060938,44.0761055 L15.5904414,47.3196758 C15.5238125,47.334418 15.4574727,47.3540742 15.3922891,47.3812461 L8.66667188,50.1839961 C8.33034766,50.3043906 6.35388281,51.0639023 4.39158203,52.917082 C2.44908203,54.7514727 0.133546875,58.0519883 0.133546875,63.3594648 L0.133546875,72.8240938 C0.133546875,73.4730391 0.659351563,73.9992773 1.30844141,73.9992773 C15.1712044,73.9992773 22.318901,73.9992773 22.7515312,73.9992773 C23.4004766,73.9992773 23.4006211,71.6494883 22.7515312,71.6494883 L11.5677031,71.6494883 L11.5677031,62.9291953 L9.21791406,62.9291953 L9.21791406,71.6494883 L2.48348047,71.6494883 L2.48348047,63.3597539 C2.48348047,54.8957148 9.18134766,52.4918711 9.46231641,52.3950352 C9.48862109,52.3860742 9.51449219,52.3765352 9.54007422,52.3658398 L15.1425391,50.031082 L21.1983984,71.6496328 L22.7431484,73.9994219 C22.7486406,73.9997109 22.7502305,73.9994219 22.7515313,73.9994219 L31.6016133,73.9994219 L31.6178008,73.9994219 C31.6193906,73.9994219 31.6209805,73.9997109 31.6222812,73.9997109 L52.7461016,73.9994219 C53.3950469,73.9994219 53.9209961,73.4710156 53.9209961,72.8222148 L53.9209961,63.3596094 C53.9208516,56.4445117 50.016918,52.877625 47.6890977,51.3666953 Z M36.8021367,48.96025 L33.2632891,56.2337852 L28.8735859,53.0029336 L33.5144844,48.1855625 C33.7721836,47.9181797 33.8769687,47.5603203 33.8325977,47.218793 C33.8388125,47.1697969 33.8431484,47.1200781 33.8431484,47.0694922 L33.8431484,47.0079219 L36.8021367,48.96025 Z M29.6638828,56.5017461 L28.7407617,58.9602227 L25.5765391,58.9602227 L25.5765391,58.9603672 L24.537793,56.4809336 L27.0866016,54.6050625 L29.6638828,56.5017461 Z M22.8381055,47.2664883 C22.8489453,47.2023164 22.8560273,47.1366992 22.8560273,47.0692031 L22.8560273,44.7208594 L22.8560273,43.0765273 C23.851125,43.3378398 24.8946406,43.4780352 25.9706758,43.4780352 L28.3792891,43.4780352 C29.4551797,43.4780352 30.4985508,43.3378398 31.4936484,43.0766719 L31.4936484,46.8963438 L27.1196992,51.4366484 L22.8381055,47.2664883 Z M43.3278672,27.2915469 C43.3277227,28.8841367 42.1723398,30.2093437 40.6563516,30.4800508 L40.6563516,24.1026094 C42.1723398,24.3731719 43.3278672,25.698668 43.3278672,27.2915469 Z M13.6927461,30.4800508 C12.1767578,30.2093438 11.0212305,28.8842813 11.0212305,27.2915469 C11.0212305,25.6985234 12.1766133,24.3731719 13.6927461,24.1024648 L13.6927461,30.4800508 Z M14.7473906,20.5760469 C14.7349609,20.5773477 14.7231094,20.5799492 14.7106797,20.5816836 C14.6839414,20.5852969 14.6570586,20.5886211 14.6308984,20.5939687 C14.6139883,20.5974375 14.5978008,20.6026406 14.5811797,20.6066875 C14.5602227,20.6120352 14.5389766,20.6163711 14.5184531,20.622875 C14.499375,20.6288008 14.4810195,20.6364609 14.462375,20.6432539 C14.4451758,20.6494687 14.427543,20.6549609 14.4107773,20.662043 C14.3893867,20.6711484 14.3690078,20.6818437 14.3480508,20.6921055 C14.3348984,20.6987539 14.321168,20.7043906 14.3081602,20.7113281 C14.2879258,20.7223125 14.2687031,20.7350312 14.2490469,20.7470273 C14.2364727,20.754832 14.2234648,20.7617695 14.2113242,20.7700078 C14.1926797,20.782582 14.1753359,20.7966016 14.1574141,20.810043 C14.145418,20.819293 14.1326992,20.8276758 14.1208477,20.8373594 C14.1046602,20.8505117 14.089918,20.8651094 14.0745977,20.8791289 C14.062168,20.8904023 14.0491602,20.9012422 14.0373086,20.9129492 C14.0231445,20.9271133 14.0101367,20.9424336 13.9968398,20.9573203 C13.9851328,20.9703281 13.9727031,20.9827578 13.9615742,20.9961992 C13.9491445,21.0110859 13.9383047,21.0271289 13.9265977,21.0425937 C13.9156133,21.0573359 13.9040508,21.0713555 13.8936445,21.0866758 C13.8835273,21.101707 13.8747109,21.11775 13.8651719,21.1332148 C13.8550547,21.1499805 13.8440703,21.166168 13.8346758,21.1833672 C13.8264375,21.1986875 13.8195,21.214875 13.8118398,21.2304844 C13.8028789,21.2489844 13.7931953,21.2670508 13.7852461,21.2859844 C13.7785977,21.3013047 13.7736836,21.3174922 13.7679023,21.3331016 C13.7603867,21.3533359 13.752293,21.3729922 13.7456445,21.3936602 C13.7405859,21.4094141 13.7371172,21.4260352 13.7329258,21.4422227 C13.7272891,21.4633242 13.7210742,21.4844258 13.7164492,21.5059609 C13.7128359,21.5230156 13.7111016,21.540793 13.7083555,21.5579922 C13.7048867,21.5792383 13.7008398,21.6004844 13.6985273,21.6221641 C13.6966484,21.640375 13.6965039,21.6590195 13.6954922,21.677375 C13.6944805,21.6941406 13.6930352,21.7107617 13.6926016,21.7278164 C13.3015,21.7675625 12.9226836,21.8486445 12.559332,21.9651367 L12.559332,16.3690312 C12.559332,8.63906641 18.8480313,2.34993359 26.5778516,2.34993359 L27.844957,2.34993359 C35.5755,2.34993359 41.8644883,8.63906641 41.8644883,16.3694648 L41.8644883,21.9914414 C41.4780117,21.8612187 41.0736133,21.7708867 40.6549063,21.72825 C40.6549063,21.7233359 40.6543281,21.7185664 40.6541836,21.7136523 C40.6536055,21.6877812 40.6525938,21.6619102 40.6502813,21.6364727 C40.6488359,21.6210078 40.6463789,21.605832 40.6443555,21.5903672 C40.6413203,21.5679648 40.6384297,21.5455625 40.6342383,21.5233047 C40.630625,21.5046602 40.6261445,21.4864492 40.6215195,21.4680938 C40.6171836,21.4498828 40.6128477,21.4318164 40.6076445,21.4138945 C40.6015742,21.393082 40.5943477,21.3727031 40.5871211,21.3523242 C40.5817734,21.3374375 40.5767148,21.3225508 40.5707891,21.3079531 C40.5621172,21.2865625 40.5524336,21.2654609 40.5426055,21.2446484 C40.5363906,21.2314961 40.5303203,21.2183438 40.5236719,21.2054805 C40.5129766,21.1851016 40.5015586,21.1654453 40.4898516,21.1456445 C40.4821914,21.1326367 40.4745313,21.1194844 40.466293,21.1067656 C40.4545859,21.0886992 40.4421563,21.0713555 40.4294375,21.0540117 C40.4196094,21.0404258 40.4096367,21.0266953 40.3992305,21.013543 C40.3869453,20.9983672 40.3743711,20.9837695 40.3615078,20.9690273 C40.3489336,20.9547188 40.3366484,20.9406992 40.3234961,20.9271133 C40.3112109,20.9143945 40.2984922,20.902543 40.2857734,20.8904023 C40.2708867,20.8762383 40.2558555,20.8623633 40.2402461,20.8490664 C40.2273828,20.8382266 40.2140859,20.8279648 40.2007891,20.8175586 C40.184168,20.8046953 40.1676914,20.791832 40.1504922,20.7799805 C40.1360391,20.7700078 40.1211523,20.7607578 40.1062656,20.7513633 C40.0893555,20.740668 40.0724453,20.7301172 40.054957,20.7201445 C40.0377578,20.7104609 40.0196914,20.7016445 40.0020586,20.6928281 C39.9860156,20.6850234 39.9704063,20.6767852 39.9539297,20.6697031 C39.9328281,20.6603086 39.9110039,20.6523594 39.8890352,20.6441211 C39.8748711,20.638918 39.8611406,20.6332813 39.8466875,20.6286563 C39.8224063,20.620707 39.7976914,20.6142031 39.7726875,20.6078438 C39.7621367,20.6052422 39.7520195,20.6014844 39.7413242,20.5990273 C35.1434961,19.5531992 33.7561406,13.7616875 33.7431328,13.7056094 C33.6412383,13.2553945 33.2849688,12.9064961 32.8327305,12.8141406 C32.3804922,12.721207 31.9159688,12.9023047 31.6452617,13.2766406 C26.4197344,20.500457 15.0588555,20.5699766 14.8732773,20.5699766 C14.8267383,20.5699766 14.7868477,20.572 14.7473906,20.5760469 Z M16.0425352,31.2008281 L16.0425352,22.8788633 C19.0463281,22.6942969 27.0273438,21.6947187 32.1609492,16.3210469 C33.0464922,18.4043203 34.8803047,21.4464141 38.3065625,22.6285352 L38.3065625,31.2008281 C38.3065625,36.6749492 33.8531211,41.1285352 28.3792891,41.1285352 L25.9706758,41.1285352 C20.4961211,41.1283906 16.0425352,36.6748047 16.0425352,31.2008281 Z M20.5062383,46.8915742 L20.5062383,47.0693477 C20.5062383,47.1937891 20.5260391,47.3136055 20.5617383,47.4260508 C20.4326719,47.8357969 20.532543,48.3011875 20.861207,48.6214688 L25.3338711,52.9779297 L20.9099141,56.2339297 L17.3712109,48.9603945 L20.5062383,46.8915742 Z M22.438332,67.365293 L20.1342148,59.1397305 C20.1525703,59.1452227 20.1703477,59.1520156 20.1889922,59.1564961 C20.2820703,59.179332 20.3763047,59.1906055 20.4703945,59.1906055 C20.7185547,59.1906055 20.9631016,59.1119805 21.1667461,58.961957 L22.590668,57.9141055 L23.5815742,60.2796484 L22.438332,67.365293 Z M24.1271797,71.6499219 L25.7953594,61.3101562 L28.5540273,61.3101562 L30.2220625,71.6499219 L24.1271797,71.6499219 Z M30.7640547,60.2562344 L31.630375,57.9492266 L33.0066016,58.9621016 C33.2103906,59.112125 33.454793,59.19075 33.7029531,59.19075 C33.7968984,59.19075 33.8912773,59.1794766 33.9843555,59.1566406 C34.0819141,59.1325039 34.1742695,59.0950703 34.2608437,59.0482422 L31.9184258,67.4103867 L30.7640547,60.2562344 Z M44.8361953,71.6499219 L44.8361953,62.9296289 L42.4864063,62.9296289 L42.4864063,71.6499219 L33.1707891,71.6499219 L39.1935508,50.1485859 L44.5144687,52.3659844 C44.5373047,52.3755234 44.5647656,52.3859297 44.5881797,52.3938789 C44.5959844,52.3967695 45.3815117,52.6706563 46.4092734,53.3373789 C48.7644102,54.8662305 51.571207,57.8457422 51.571207,63.360043 L51.571207,71.6499219 L44.8361953,71.6499219 Z"></path>
        </g>
    </g>
</svg>