<svg width="24" height="25" viewBox="0 0 24 25" fill="none" xmlns="http://www.w3.org/2000/svg">
<path d="M6.66667 0.578857C2.98533 0.578857 0 3.56419 0 7.24552V17.9122C0 21.5935 2.98533 24.5789 6.66667 24.5789H17.3333C21.0147 24.5789 24 21.5935 24 17.9122V7.24552C24 3.56419 21.0147 0.578857 17.3333 0.578857H6.66667ZM20 3.24552C20.736 3.24552 21.3333 3.84286 21.3333 4.57886C21.3333 5.31486 20.736 5.91219 20 5.91219C19.264 5.91219 18.6667 5.31486 18.6667 4.57886C18.6667 3.84286 19.264 3.24552 20 3.24552ZM12 5.91219C15.6813 5.91219 18.6667 8.89752 18.6667 12.5789C18.6667 16.2602 15.6813 19.2455 12 19.2455C8.31867 19.2455 5.33333 16.2602 5.33333 12.5789C5.33333 8.89752 8.31867 5.91219 12 5.91219ZM12 8.57886C10.9391 8.57886 9.92172 9.00028 9.17157 9.75043C8.42143 10.5006 8 11.518 8 12.5789C8 13.6397 8.42143 14.6571 9.17157 15.4073C9.92172 16.1574 10.9391 16.5789 12 16.5789C13.0609 16.5789 14.0783 16.1574 14.8284 15.4073C15.5786 14.6571 16 13.6397 16 12.5789C16 11.518 15.5786 10.5006 14.8284 9.75043C14.0783 9.00028 13.0609 8.57886 12 8.57886Z" fill="white"/>
</svg>
