<?xml version="1.0" encoding="utf-8"?>
<!-- Generator: Adobe Illustrator 22.1.0, SVG Export Plug-In . SVG Version: 6.00 Build 0)  -->
<svg version="1.1" id="Layer_1" xmlns="http://www.w3.org/2000/svg" xmlns:xlink="http://www.w3.org/1999/xlink" x="0px" y="0px"
	 viewBox="0 0 400 400" style="enable-background:new 0 0 400 400;" xml:space="preserve">
<style type="text/css">
	.st0{fill-rule:evenodd;clip-rule:evenodd;fill:#00A651;}
	.st1{fill-rule:evenodd;clip-rule:evenodd;fill:#8DC63F;}
	.st2{fill-rule:evenodd;clip-rule:evenodd;fill:#FFFFFF;}
	.st3{fill-rule:evenodd;clip-rule:evenodd;fill:#1762AE;}
	.st4{fill-rule:evenodd;clip-rule:evenodd;fill:#ED1C24;}
	.st5{fill-rule:evenodd;clip-rule:evenodd;fill:#FED628;}
	.st6{fill:#1762AE;}
</style>
<g>
	<g>
		<path class="st0" d="M89.9,92.1c0.6,2.2-1.4,1.8-2.2,3.8c-1.4,3.5-0.3,12.3-5.4,11.4C76.1,106.2,79.9,88.4,89.9,92.1z"/>
		<path class="st0" d="M72.6,102.5c3.8,0.9,6.6,2.8,7.1,7.1c-2.1-0.5-3.5,0.9-4.3,0C74.6,107,73.8,104.4,72.6,102.5z"/>
		<g>
			<path class="st1" d="M95.9,100.3c1.4,0.1,2.1,0.8,2.2,2.2c-0.5,0-0.4,0.7-0.5,1.1c-1.5,0.4-1.4-0.8-2.7-0.5
				C94.4,101.3,95.7,101.3,95.9,100.3z"/>
			<path class="st1" d="M101.9,103c-0.7,0.7-2,0.7-2.7,0C98.9,100.7,102.5,99.9,101.9,103z"/>
			<path class="st1" d="M94.3,104.1c-1.6,0.1-3,0.1-2.7-1.6C92.6,101.4,94.9,101.9,94.3,104.1z"/>
			<path class="st1" d="M88.3,102.5c1.8-0.1,2.6,0.6,2.7,2.2c-0.4,0.5-1.5,0.3-1.6,1.1C88.1,105.4,87.1,103.6,88.3,102.5z"/>
			<path class="st1" d="M104.1,102.5c0,0.7,0,1.4,0,2.2C102,105.1,102,102,104.1,102.5z"/>
		</g>
		<path class="st2" d="M86.7,117.7c1.1,0,2.2,0,3.3,0c0.1,1.7-0.7,2.6-1.1,3.8C87.6,120.4,85.6,119.7,86.7,117.7z"/>
		<path class="st0" d="M193.7,120.4c-3,1.4-11.4-2.3-16.3,0.5C179.1,115.7,190.6,118.7,193.7,120.4z"/>
		<path class="st1" d="M197,119.3c-0.6,2.5-1.5,4.7-3.3,6C192.1,124.4,194.2,119.3,197,119.3z"/>
		<path class="st0" d="M179,122c11.3-2.6,15.8,6.3,17.9,14.7c-9.6-1.1-14-7.3-18.5-13.6c3.2-0.3,7.2,3.3,10.3,4.9
			C188.5,125.2,183.2,122.7,179,122z"/>
		<path class="st1" d="M198,122c0.8,0.5,1.7,0.8,1.6,2.2c-0.7,2.2-2.5,3.3-4.9,3.8C195.5,125.6,197.3,124.4,198,122z"/>
		<path class="st2" d="M88.9,123.1c2.1,0.1,2.1,2.3,4.3,2.2c-1.4,0.8-3.4,0.9-4.9,1.6C87.2,125.8,88.5,124.3,88.9,123.1z"/>
		<path class="st0" d="M201.3,131.8c-1.8-0.2-1.2-2.8-2.7-3.3C200.1,125,203.8,131.3,201.3,131.8z"/>
		<path class="st3" d="M76.6,164.8c-1.3-7.7-9-16.5,0-21.2c-0.5-0.7-0.5-2-1.6-2.2c-2.3,1.3-2.6,4.7-3.8,7.1
			c-4.8-2.9,0.6-8.4,2.7-10.9c-4.2-2.1-3.1,6-7.1,6c0.2-4,2-6.3,3.8-8.7c-0.3-0.8-0.8-1.3-1.6-1.6c-3.6,2.1-1,10.2-6,10.9
			c0-2.5,1.4-3.7,1.1-6.5c-3.6,0.1-1.2,3.7-2.2,7.1c-5.9,3.2-9.3,8.8-14.1,13c-0.9-9.9-12.9-25.6,4.9-26.1c2,1.6,3.8,3.4,5.4,5.4
			c2.9-12,24.3-10.9,21.7,5.4c2.7,0.1,4.1-1,7.1-0.5C96.7,149.2,90,166.5,76.6,164.8z"/>
		<path class="st1" d="M204.6,134c-2,0.2-4.6,1.9-6.5,0.5C199.4,133.7,204,130.5,204.6,134z"/>
		<path class="st1" d="M204,136.7c0.5,2.3-3.4,1.8-4.3,1.1C199.8,136.1,202.4,136.9,204,136.7z"/>
		<path class="st4" d="M201.8,139.4c5,3.8,0,16.4-7.1,9.2C192.3,142.5,197.4,140.3,201.8,139.4z M197,146.5c1.4-0.2,1.8-1.4,2.2-2.7
			C197.1,143.4,195.8,145.2,197,146.5z"/>
		<path class="st2" d="M199.1,143.7c-0.3,1.3-0.7,2.5-2.2,2.7C195.8,145.2,197.1,143.4,199.1,143.7z"/>
		<path class="st0" d="M195.9,150.3c0.5,2.1-2.4,1.9-3.3,1.1C193.3,149.9,194.4,149.7,195.9,150.3z"/>
		<path class="st5" d="M66,145.9c-15.5,4.4-27.3,23.2-19,41.3c4.3-4.1,7.6-11.9,13.6-12.5c-1.3,5.6-5.1,8.6-5.4,15.2
			c7.7-1.8,19.6-15,19-25C73.8,157.6,67.8,152.9,66,145.9z M59,161.1c-0.2-2,0.6-3,1.1-4.3c-5.6,2-7.6,7.6-10.9,12
			c1.4-7.6,7-15.8,15.2-18.5c1.8,1.4,1.8,4.8,1.6,8.1C63.3,154,61.9,160.7,59,161.1z"/>
		<path class="st5" d="M24.8,162.8c-0.3-2.6-2.4-5.2-7.1-3.8C4.3,163,26.5,176.2,24.8,162.8z M22.6,163.8c-2.2,0.6-2.7-1.7-1.6-2.7
			c0.5,0,1.1,0,1.6,0C22.6,162,22.6,162.9,22.6,163.8z"/>
		<path class="st3" d="M94.8,163.8c-11.6,12.2-10.3,40.1-34.2,38c2-1.9,7-0.6,7.6-3.8c-0.8-1.9-3.8-1.6-5.4-2.7
			c2.2-3.7,9-5.3,7.6-10.9c-3.8,1.6-6.4,4.4-10.3,6c-1.4,0-0.7-0.4-0.5-1.1c5-3.4,8.7-7,12.5-12.5c2.1-3,3.3-7.3,5.4-9.2
			C81.3,164.2,88.2,164,94.8,163.8z"/>
		<path class="st5" d="M22.6,172.5c-3.2-3.6-9.9-3.6-10.3,1.6C11.8,180.7,23.8,182.6,22.6,172.5z M19.9,175.8
			c-2,0.4-2.4-0.9-2.2-2.7c0.5,0,1.1,0,1.6,0C19.8,173.7,20,174.5,19.9,175.8z"/>
		<path class="st0" d="M92.1,199.7c0.5,0.2,1,0.5,1.1,1.1c-2.1,5-5.6,8.5-9.2,11.9C85.4,207.1,87.5,202.1,92.1,199.7z"/>
		<path class="st0" d="M82.3,200.2c0.5,0,1.1,0,1.6,0c1.3,3.8-2.8,6.6-2.7,10.9C78.5,208.3,81.5,202.9,82.3,200.2z"/>
		<path class="st0" d="M98.6,207.3c-4.3,1.8-8.2,4.1-12,6.5c0.6-4.1,7.1-7,10.3-10.3C99.2,203.1,98.6,205.6,98.6,207.3z"/>
		<path class="st1" d="M109,209.5c-3.2,5.9-15.3,0.9-19.6,6.5C91.1,212,103.4,204.5,109,209.5z"/>
		<path class="st1" d="M114.9,215.5c-0.3,5.2-7.5,1.3-12.5,1.6c-4.3,0.3-7.7,2.4-10.9,2.7C96.5,215.9,107,212.7,114.9,215.5z"/>
		<path class="st0" d="M104.1,220.3c-1.3,4.5-7.7,0.4-11.4,2.2C94.7,219.8,100.9,218.7,104.1,220.3z"/>
		<path class="st2" d="M16.1,219.8c1.5,0.3,2.8,0.8,4.3,1.1c-0.7,1.1-0.9,2.8-2.7,2.7C16.5,223,16.5,221.2,16.1,219.8z"/>
		<path class="st0" d="M100.8,224.7c-0.7,3.4-9.4,2.7-10.3,0C94.4,225.2,97.6,223.2,100.8,224.7z"/>
		<path class="st2" d="M30.2,226.3c0.2,1.3,0.6,2.3,1.6,2.7c-0.7,0.9-3.4-0.7-4.9,0.5C26.7,227.1,27.5,225.8,30.2,226.3z"/>
		<path class="st2" d="M75.3,227.9c-1.3,0.2-2.1-0.1-2.7-0.5C72.7,225.7,75.5,226.3,75.3,227.9z"/>
		<path class="st2" d="M69.3,230.1c0.9,1,2.5,1.1,2.7,2.7c-0.9,0.2-0.9-0.5-1.6-0.5c-1.7-0.4-1,1.5-2.7,1.1
			C68,232.1,69.8,232.2,69.3,230.1z"/>
		<path class="st5" d="M110.6,236.1c2.5-2,6.9-3.9,9.8-1.1c0.4,2,1.7,3.8,0.5,6c1.6,0,3.3,0,4.9,0c1.2,1.3,3.1,4.2,1.6,6.5
			c0.9,1.6,3.5,1.5,4.9,2.7c0.8,3.1,0,4.2-1.6,6c-3.4-0.5-7.2-0.7-10.3-1.6c0.8-1,3-0.6,2.7-2.7c0.2-2.9-1.9-3.5-4.9-3.3
			c0.6-2.9,0.6-4.3-1.6-5.4c-1.6-0.1-1.7,1.2-3.3,1.1c0.6-2.8-1-3.3-2.2-4.3c-1.6-0.1-2.8,0.1-3.3,1.1c-1.2-1.3-1.7-3.4-3.8-3.8
			c-2.2,0.2-3.1,1.6-3.8,3.3c-1.1-1.3-2-2.7-3.8-3.3c-3.1,0.4-4.2,2.7-3.8,6.5c-12.1-4.4,2.3-20.7,7.1-8.1
			C99.5,228.9,111.6,227.9,110.6,236.1z"/>
		<path class="st4" d="M104.6,238.3c0.6,1.3,1.9,1.8,1.6,3.8c-1.2,1.1-3-0.6-5.4,0C101.3,240,101.6,237.8,104.6,238.3z"/>
		<path class="st4" d="M94.3,238.8c5.8-0.7,4.6,3.8,6.5,6c4.3-5.8,10.5,5.5,1.6,4.3c-0.8-1-1.4-2.2-1.6-3.8c-1.6,0.7,0.6,1.9,0,3.3
			c-0.7,0-1.4,0-2.2,0c0.2,1,1.2,1.4,1.1,2.7c-1.3-2.5-4.6-3-4.9-6.5c0.1-1.4,0.8-2.1,2.2-2.2c-1.1-2-2.3,1.6-3.3,0
			C93.3,240.7,94.6,240.5,94.3,238.8z"/>
		<g>
			<path class="st0" d="M65,235c-4,1-3.2,6.9-4.9,10.3c0.1-3.9,0.1-7.7-1.1-10.3c-0.5,0-1.1,0-1.6,0c-1.9,5.1,2,8.3,1.6,13.6
				C61.7,245.6,63.5,240.6,65,235z"/>
			<path class="st0" d="M65,239.4c-1.5,2.5-2.5,5.5-3.3,8.7C63.4,246.1,68.3,241.2,65,239.4z"/>
		</g>
		<path class="st4" d="M111.7,245.9c-1.2-0.6-3.3-0.3-4.3-1.1c0.1-1-0.7-1.1-0.5-2.2C109.5,239.5,114.4,242.5,111.7,245.9z"/>
		<path class="st5" d="M79.1,252.9c-0.3-1.8-4.6-4.2-8.7-2.7c4.4-12.9,25.1-9.1,27.7,2.7c0.6-0.4,0.6-1.2,1.6-1.1
			c1.4,3.5-1.2,3.8-0.5,8.1c-4.7-0.9-8-2.3-13-1.6c-2.6,0.4-4.9,2.8-7.1,2.7c-4.7-0.2-5.7-4.9-9.2-7.6
			C72.1,251.1,75.9,251.2,79.1,252.9z"/>
		<path class="st0" d="M200.8,243.2c0.5,0,1.1,0,1.6,0c6.9,11.6-2.3,25.8-12.5,28.8c6.8-4.9,13.3-10.9,12-22.8
			C201.6,246.8,199.6,245.8,200.8,243.2z"/>
		<path class="st1" d="M206.2,245.3c2-0.4,1,3.3,0.5,3.8C205.3,248.4,205.7,246.7,206.2,245.3z"/>
		<path class="st4" d="M106.8,250.2c0.3-1.5,1.3-2.3,1.6-3.8C115.7,246,110.5,255.5,106.8,250.2z"/>
		<path class="st0" d="M138.8,249.1c0.5,0,1.1,0,1.6,0c5.1,3.7,2,14.4-2.7,16.3C137.5,261.3,140.3,254.7,138.8,249.1z"/>
		<path class="st1" d="M210.5,249.7c-0.1,2.3-2.7,2-4.3,2.7C206.8,250.7,208.8,248.5,210.5,249.7z"/>
		<path class="st4" d="M115.5,255.1c-2.4,0.4-3.4-0.6-4.3-1.6C110,249.2,118.7,248.9,115.5,255.1z"/>
		<path class="st4" d="M101.9,251.8c0.6-0.1,1.1,2.3,1.6,0.5c1.3,1,0.2,4.2-2.2,3.3C101.4,254.2,101.1,252.5,101.9,251.8z"/>
		<path class="st1" d="M198.6,251.8c0.9-0.2,0.9,0.5,1.6,0.5c-0.1,4.6-1.7,7.7-2.7,11.4C196.6,260.7,198.3,255.5,198.6,251.8z"/>
		<path class="st1" d="M212.7,252.4c-1.7,2.3-4.8,3.1-7.6,4.3C206.8,254.7,209.7,251.4,212.7,252.4z"/>
		<path class="st5" d="M40,257.8c3.6-1,4.7-5.3,1.6-7.6c-5.8-1.3-4.6,4.5-9.2,4.3c0-0.5-0.4-0.6-0.5-1.1c-0.1-1,0.6-1.2,0.5-2.2
			c3.3,0.6,4.2-1.3,6.5-1.6c0.5-3.2-1-4.4-2.2-6c-3.7-0.6-5.4,0.7-6.5,2.7c0,2.4,1.9,3.2,0.5,5.4c-1.7-0.8-2.1,0.2-3.3-0.5
			c2.1-1.6,2.8-5,1.1-7.6c-8.8-3.6-8.5,8.6-1.6,8.7c-1.6,0.2-1.7,1.9-3.8,1.6c0.4-2.8-1.3-3.4-2.2-4.9c-7.7-2.7-7.4,8.3-1.6,8.1
			c1.7,0,1.4-2.4,4.3-2.2c-0.2,1.7,1.3,2.6,0,3.8c-2.8-0.6-4.9-0.7-6.5,1.1c-0.2,2,0.1,3.5,0.5,4.9c1.4,0.6,3.3,0.6,5.4,0.5
			c1.6-1.1,1.4-4,2.2-6c0.8,1.4,3.5,0.9,3.8,2.7c-4.1,0.4-5.7,6-2.2,8.1c7.6,0.8,6.2-6,3.3-9.2c0.8-1,1.2-2.4,3.3-2.2
			c-4.2,8.8,9,11.2,7.1,1.1c-1.4-4-8.2,0.6-8.1-4.3C35.7,253.6,36.9,257.8,40,257.8z M28,256.2c0-0.5,0-1.1,0-1.6
			c1.1-0.2,1.4,0.4,2.2,0.5C30.1,256.1,29.3,256.3,28,256.2z"/>
		<path class="st4" d="M110.6,255.1c0.1,2.4-2.3,2.4-3.8,3.3C107.9,257.2,108.7,255.6,110.6,255.1z"/>
		<path class="st5" d="M135.6,269.2c-12.3,0.2-14.8-11.8-29.3-7.6C111.9,252.8,137.8,253.2,135.6,269.2z"/>
		<path class="st1" d="M214.3,256.2c-1.6,3.3-6.9,2.9-10.3,4.3C207,258.9,210,254.6,214.3,256.2z"/>
		<path class="st1" d="M194.2,256.2c3,3-0.9,8-0.5,12C192.7,265.1,192.8,258.6,194.2,256.2z"/>
		<path class="st4" d="M106.2,258.4c0,2.4-1.3,3.4-2.7,4.3C96.9,261.8,102,253.3,106.2,258.4z"/>
		<path class="st1" d="M144.3,257.3c0.9-0.2,0.9,0.5,1.6,0.5c0.1,2.1-1.1,2.9-2.7,3.3C142.8,259.1,144.4,259,144.3,257.3z"/>
		<path class="st1" d="M144.8,262.7c-0.8-1.5,7.5-8,6-2.2C149.1,261.6,146.5,261.7,144.8,262.7z"/>
		<path class="st3" d="M84.5,271.4c-2.3,1.1-4.5,2.4-6,4.3c-8.1-16,16-20.7,23.4-12c12.5-0.5,23.9,14.5,14.7,23.9
			c-4.8-1.9-5.2-8.2-7.6-12.5c-2.3,5.8,5.1,9.3,4.3,13.6c-10.7-0.6-15.2-9.8-12.5-20.6c-2.8,6.8-13.2,14.4-21.7,8.7
			C80.3,274.5,83,273.5,84.5,271.4z"/>
		<path class="st1" d="M189.9,260c0.5,0,1.1,0,1.6,0c0.2,4.7-0.4,8.6-3.3,10.3C189.5,267.6,188.8,262.9,189.9,260z"/>
		<path class="st1" d="M211.1,262.2c-1,3-6,1.9-8.7,3.3C202.2,263.7,208.2,260.9,211.1,262.2z"/>
		<path class="st0" d="M70.9,262.2c-0.9,1.5-2,2.7-2.7,4.3c0.4,1.6,1.2-0.5,2.2,0c-4.1,8.9,9.1,15.1,2.2,20.1
			c-6.6-1.5-5.3-10.7-4.9-17.9c-3,6.7-2.4,21.9,3.8,22.8c6,0.8,6.2-7.4,11.4-8.7c5.8,1.3,2.2,9.3,0,11.9
			C62.1,305.6,56.1,268.4,70.9,262.2z"/>
		<path class="st5" d="M132.9,270.3c0.8,2.2-3.2,4.6-4.9,4.9c-8.5,1.4-13.3-10.3-20.1-12C119.9,258.2,124.3,270.4,132.9,270.3z"/>
		<path class="st1" d="M151.3,262.7c-0.6,1.9-3.6,1.4-5.4,2.2C146.2,262.8,149.5,261.5,151.3,262.7z"/>
		<path class="st1" d="M52.5,280.1c-0.6-9.2,7.5-14.2,14.7-17.4C61.5,267.7,59.9,276.8,52.5,280.1z"/>
		<path class="st1" d="M204.6,267.6c-0.3,2.6-3.7,2.1-6.5,2.2C199.7,268.5,201.3,267.3,204.6,267.6z"/>
		<path class="st1" d="M59.5,275.2c2.1,1.8,0.3,4.4,0.5,6.5c0.8,5.7,6.8,10.1,4.9,16.3C54,300.7,55.1,279.1,59.5,275.2z"/>
		<path class="st0" d="M100.3,287.7c-3,2.6-6,5.2-11.4,5.4C89.3,288,96.9,289.9,100.3,287.7z"/>
		<path class="st0" d="M101.9,291c-3.1,2.5-5.9,7.6-10.3,7.1C91.2,293.8,97.5,292.1,101.9,291z"/>
		<path class="st0" d="M94.3,302.4c0.1-6.2,6.5-6.2,9.2-9.8c0.9-0.2,1,0.4,1.1,1.1C101,296.2,99.4,303.1,94.3,302.4z"/>
		<path class="st1" d="M105.2,293.1c0.9,2.6-0.9,16.4-7.1,12C98.9,299.6,103.6,298,105.2,293.1z"/>
		<path class="st1" d="M108.4,295.3c1.1,2.6,0.5,9.2-1.6,12C100.7,305.4,107.6,298.7,108.4,295.3z"/>
		<path class="st0" d="M111.1,296.4c1.5,2.5,2.5,10.4,0,12C107.2,305.8,111.6,300.5,111.1,296.4z"/>
		<path class="st0" d="M118.2,296.9c2.2,2.8,6.3,7.9,4.3,11.4C119,308.7,118.2,301.9,118.2,296.9z"/>
		<path class="st0" d="M113.8,297.5c1.6,2,5.2,8.9,1.6,10.9C112.3,307.3,114.5,301,113.8,297.5z"/>
		<path class="st2" d="M146.4,113.9c0.4,2.5-3.8,4.8-6.5,6c5.6,2.7,8.7-0.8,14.1-2.2c-1,1.4-2.7,2-4.3,2.7c3.8,2.8,9.8-0.8,15.2-1.1
			c-1,1.7-3.8,1.7-6,2.2c1.7,1.8,5.3,1.6,7.6,2.7c-5,0.4-12-1.8-17.9-2.2c1.6,1.9,4.3,2.6,6.5,3.8c-4.7-1.2-12-5.3-18.5-3.8
			c3.4,1.9,6.6,3.9,9.8,6c-5.6-0.6-11.1-8.1-20.6-4.9c2.5,3.5,7.7,4.3,9.8,8.1c-5.1-1.6-10.9-10.9-16.8-4.9c1,1,3.5,0.5,4.3,1.6
			c-3.2,0.6-8.1-0.9-9.2,1.1c2.6-6,11-6,13-12.5c1.4,1.8-1.6,3.8-2.2,5.4c5.1-0.9,7.8-4.2,10.9-7.1c0.6,2.3-3.5,4.5-5.4,6
			C136.4,121.6,143.2,118,146.4,113.9z"/>
		<path class="st0" d="M133.9,110.6c3-0.4,6.1-5.5,10.9-6c0.4,2.7-1,3.7-1.6,5.4c2.2-0.3,5.7-4.1,9.2-4.9c0,1.6,0,3.3,0,4.9
			c3.4-1,8.4-0.3,11.9-1.1c0.7,2.7-1.7,2.3-1.6,4.3c3.5,1,7.9,1.2,10.9,2.7c-0.2,2.5-2.1,3.4-3.8,4.3c3.5,1.9,6.4,4.4,9.8,6.5
			c-2.4,3.2-8.1,3.1-13.6,3.3c-1,0.7,1.8,2.2,2.2,3.3c-2.1,1.7-6.7,1.9-9.8,1.1c-1.6,0.8,1,1.9,0.5,3.3c-3.5,0.7-8,0.8-10.9-0.5
			c-1,0.1,0.8,2-0.5,2.7c-4.1,1.3-8.4-0.3-10.9-2.2c-1.8,0.9,1,2.9-0.5,3.8c-6-0.5-10.4-2.6-13-6.5c-1.2,0.2,0,2.9-1.1,3.3
			c-4.5-0.4-5.1-4.7-7.6-7.1c-5.6,8.2-9.5,18-18.5,22.8c-1.6,0-1.8-1.4-3.3-1.6c3.9-5.7,11.1-8.1,14.1-14.7
			c-4.3,1.5-9.3,9.9-15.2,9.8c3.9-7.1,13.2-8.9,17.4-15.8c-4.2-0.1-8.8,9.5-14.7,6c5-5.8,15.4-6.3,18.5-14.1
			c-4.7,1.2-9.9,0.3-12-2.7c0.2-1.2,2.9-0.4,3.3,0c-2.2-2.8-7.8-4.8-5.4-10.3c1.9,0.4,2.2,2.5,2.7,4.3c1.8-2.4-4.9-8,0.5-9.2
			c2,4.7,3.5,9.9,8.7,11.4c1.3-1.8-3.2-2.6-2.7-5.4c2.5-0.3,3.4,1,4.3,2.2c-1-3-4.5-3.5-6.5-5.4c2.3-3.1,5.5,1,7.1,2.2
			c0.1-1.7-1.7-1.5-1.1-3.8c2.2-0.8,5.2,0.5,4.3,4.3c0.4,1.3,1.6-1.8,2.7,0c-0.6,4.1-1.5,7.9-3.3,10.9c2.5-3.1,5.9-5.4,6.5-10.3
			c2-0.5,0.8,2.1,1.1,3.3c3.7-4.1,6.6-9,12.5-10.9C137.5,105,134.6,108.9,133.9,110.6z M130.1,120.9c2-1.5,6.1-3.7,5.4-6
			c-3.1,2.9-5.8,6.2-10.9,7.1c0.5-1.7,3.5-3.7,2.2-5.4c-2,6.5-10.5,6.5-13,12.5c1.1-2,6.1-0.5,9.2-1.1c-0.9-1.1-3.3-0.7-4.3-1.6
			c5.9-6,11.7,3.2,16.8,4.9c-2.1-3.9-7.3-4.7-9.8-8.1c9.5-3.2,15,4.3,20.6,4.9c-3.2-2.1-6.4-4.1-9.8-6c6.4-1.5,13.7,2.6,18.5,3.8
			c-2.2-1.2-4.9-2-6.5-3.8c5.9,0.4,13,2.6,17.9,2.2c-2.3-1.1-5.9-1-7.6-2.7c2.2-0.5,5-0.5,6-2.2c-5.4,0.3-11.4,3.9-15.2,1.1
			c1.7-0.7,3.4-1.3,4.3-2.7c-5.4,1.4-8.6,4.9-14.1,2.2c2.7-1.1,7-3.5,6.5-6C143.2,118,136.4,121.6,130.1,120.9z"/>
		<path class="st3" d="M37.8,179.1c-1.2,6.8,5.5,10.4,7.1,16.3c-9.6-4-16.1-9.8-16.3-20.1c-0.2-10.2,9.1-19.9,8.1-28.2
			c-0.3-2.4-2.5-3.7-2.2-5.4c7,2.1,12.6,10.6,11.4,20.6c-0.9,7.5-7,17.2-0.5,23.4C42.7,185.7,41.9,179.3,37.8,179.1z"/>
		<path class="st0" d="M68.8,186.1c-0.3,3.6-5.2,7.1-8.7,9.2c1.7,1.4,4.1,2,6.5,2.7c-2.1,1.9-7.1,1.9-10.3,1.1
			c-0.4,2.4,1.6,2.4,1.6,4.3c-3,0.2-4.1-1.4-6-2.2c-0.7,3.9,0.4,8.4,0,13.6c1.8-3.8,4.1-10,8.1-9.8c-1.4,6.3-9,10.1-5.4,17.9
			c4.5-9.6,9.7-21.4,21.7-21.7c-1.7,5.2-8.5,5.3-10.9,9.8c2.5,0.5,6.6-2.1,9.8,0c-7.3,4.8-17.8,6.4-19,17.4c-6.5,0-9.5,3.5-14.1,5.4
			c-0.7-4.5,5.5-6.3,9.8-7.6c-1.8-2.5-4-2-6.5-1.6c0.1-2.2,2.3-2.4,4.3-2.7c-1.5-2.7-4.7-3.7-5.4-7.1c2-1.3,3.2,2,4.9,2.7
			c-4.6-6.5-10.1-12-15.2-17.9c-7.1,3.2-12.4-2.6-21.2-1.1c-2.7,0.5-3.6,2.9-7.6,2.2c-0.5-7.1,7.9-9.8,12.5-13.6
			c18.1,0,20.7,18.6,32,26.1c-1-8.4-10-8.8-10.9-17.4c5.9,1.7,7.9,7.4,10.3,12.5c0.9-3.1-0.7-8.1,0.5-12c-3.2-0.8-1.4,3.3-4.3,2.7
			c-0.3-2.1,0.5-3.2,1.1-4.3c-3-4.1-6.5-7.6-7.6-13.6c3.3,2.5,4.8,6.8,9.8,7.6c2.9-4.7,4.8-10.4,10.3-12.5
			c-1.8,4.8-6.8,9.1-4.9,15.8C61,192.1,65.3,189.5,68.8,186.1z"/>
		<path class="st4" d="M30.7,147c-0.6,2.4,0,1.8,0.5,3.8c-2.1-0.3-2.7,1-4.9,0.5c5.6,8-9.7,8.2-6,0c1.3-0.5,4.2-1.1,5.4,0
			C27.4,149.8,28.1,147.5,30.7,147z"/>
		<g>
			<path class="st0" d="M46.5,245.9c-2.8-0.6-6.3,0.9-4.3,3.3C43.4,247.8,46,247.9,46.5,245.9z"/>
			<path class="st0" d="M56.8,255.1c-4.6-2.1-6.1,1.7-8.7,3.3c-3.2-7.2,2.6-12.4,6.5-15.8c-1.8-0.8-4.6-0.5-7.1-0.5
				c1.2-1.9-2.7-2.5-4.3-3.3c-2.1-1.5-2.2-5.1-6-4.9c-0.2,6,6.1,5.5,9.2,8.1c-6,0-14.9-2.8-17.4-2.7c5.8,2.9,12,5.4,21.2,4.9
				c-9.2,4.1-4.8,26.9,5.4,21.7C58.5,264.6,59.6,258.3,56.8,255.1z"/>
		</g>
		<path class="st4" d="M112.2,247.5c0.9-1.5,3.3-3.6,4.9-2.7c1.1,1.2,0.4,3.6-0.5,4.3c1,1.2,4.3,0.1,5.4,1.1c0.5,3-1.7,3.4-4.3,3.3
			C118.4,248.9,113.3,250.2,112.2,247.5z"/>
		<path class="st4" d="M92.1,115.3c5.7-0.7,8.9,9.2,1.6,9.2c1.2,1.1,2.3,2.4,2.7,4.3c-0.7,3-2.5,4.7-6.5,4.3
			c-2.4-1.7-1.4-9.3-6.5-6.5c1.5,2.4,5.2,3.8,3.8,7.6c-3.1,2.9-8.7,1.5-9.2-2.7c0.4-3,4.2-2.7,4.3-6c-0.1-0.4-0.5-0.5-0.5-1.1
			c-3-0.4-2.6,2.5-3.3,4.3c-2,1-4.9,0.5-6.5-0.5c-0.6-1.4-0.7-3.3-0.5-5.4c1.4-0.8,2.4-1.9,4.3-2.2c1.2,0.8,2.2,1.8,3.3,2.7
			c1.7,0.5,1.1-1.4,2.2-1.6c-0.1-2.5-3.5-2.6-5.4-1.6c-10-5.6,7.6-15.4,6-1.1c2.1-0.1,3.2-1.2,3.8-2.7c-0.2-1.7-2.1-1.9-2.2-3.8
			C83,104.5,97.8,109,92.1,115.3z M88.9,120.7c0.4-1.2,1.1-2.1,1.1-3.8c-1.1,0-2.2,0-3.3,0C85.6,118.9,87.6,119.6,88.9,120.7z
			 M88.3,126.2c1.5-0.7,3.5-0.9,4.9-1.6c-2.3,0.1-2.3-2.1-4.3-2.2C88.5,123.6,87.2,125.1,88.3,126.2z"/>
		<path class="st4" d="M26.4,230.7c-0.9,0-1.8,0-2.7,0c-0.6,3.2,1.7,3.4,2.2,5.4c-2.4,11.1-14.9-2.5-3.8-4.3
			c0.1-1.7-1.4-1.9-2.7-2.2c0.1,7.9-12.6,8.5-8.1-1.6c2.2-1.2,4.7-0.2,6.5,0.5c1.2-0.3,0.5-3.3,0-3.8c-4.9,4.6-12.9-1.3-7.6-6.5
			c1.7,0.1,4-0.4,4.9,0.5c-2.5-5.4,6.4-9.1,8.7-3.8c0.6,2.9-1.3,3.4-1.6,5.4c0.5,1.3,2.2,1.4,3.8,1.6c-0.5-3.2-1.8-5.4,0-8.1
			c3.9-1.5,6.9-0.1,7.6,2.2c1.6,5.1-4.5,5.7-7.1,8.1c3.3,3.9,4.1-2.4,7.1-2.7c6.3-0.6,7.6,8.3,0,8.7c1.3,3.3-0.3,5.5-1.6,7.6
			C27.4,238.1,24.4,235,26.4,230.7z M17.7,223.6c1.9,0,2-1.6,2.7-2.7c-1.5-0.3-2.8-0.8-4.3-1.1C16.5,221.2,16.5,223,17.7,223.6z
			 M26.9,229.6c1.4-1.3,4.2,0.4,4.9-0.5c-1.1-0.4-1.4-1.4-1.6-2.7C27.5,225.8,26.7,227.1,26.9,229.6z"/>
		<path class="st3" d="M76.4,223.1c-0.1,1.4,0.8,1.7,1.6,2.2c0.6-0.3-0.5-3.2,0.5-4.3c3.8-3.6,11.1,1.7,6.5,4.9
			c2,1.8,3.2,6.2,0.5,8.1c-2.3-0.1-1.9-2.8-3.3-3.8c4,4.2-3,14.4-7.6,7.1c-0.3-2.1,0.5-3.2,1.1-4.3c-0.9,0-1.8,0-2.7,0
			c2.1,4.7-1.2,9.4-5.4,7.6c-0.8-1.4-1.9-4.7-0.5-6.5c-5.6,1.3-7.6-4.8-4.3-7.6c2.5,0.2,4.1,1.3,6.5,1.6c1-0.1,0.3-1.8,1.1-2.2
			c-11.2,4.4-6.3-13.4,1.1-6c0.2,1.9-0.2,3-0.5,4.3c0.2,0.7,2.9-0.7,3.8-1.1c-1.3-1.8-3.3-2.9-3.3-6
			C76.6,211.2,83.2,219.7,76.4,223.1z M72.6,227.4c0.6,0.5,1.5,0.7,2.7,0.5C75.5,226.3,72.7,225.7,72.6,227.4z M67.7,233.4
			c1.7,0.4,1-1.5,2.7-1.1c0.7,0,0.8,0.7,1.6,0.5c-0.2-1.6-1.9-1.8-2.7-2.7C69.8,232.2,68,232.1,67.7,233.4z"/>
		<path class="st0" d="M160,302.9c-1,1.6,3,2.7,2.7,5.4c-7.1-0.7-11.8-3.7-16.3-7.1c-0.8,2.3,2.8,4.8,2.2,8.7
			c-4.2-2.3-8.1-4.9-11.4-8.1c-1.1,0.8-0.8,2.8-1.6,3.8c-3.5-1.8-4-6.5-6.5-9.2c-0.8,0.7-1,1.9-1.1,3.3c-1.7-1.7-2.1-6.5-1.1-9.2
			c-1-2.4-6.1-0.8-6-4.3c6,0.9,13.6,4.8,17.4,9.8c-0.8-1.9-2.2-3.2-3.8-4.3c6-2.3,10.8,1.1,13.6,3.8c0.9-1.6-3.9-2.2-3.8-4.9
			c6.9-3.5,9.3,3.6,14.1,5.4c-0.7-3.5-5.3-3-6-6.5c5.9-3.4,9.8,1.8,14.7,2.7c-1.7-1.8-4.3-2.6-6.5-3.8c2.8-3.2,8.2-1.8,12.5-1.1
			c0.3-2.1-3.8,0.1-3.3-2.2c4.6-0.7,7.2-3.3,11.4-4.3c-4.1-0.6-8.4,3.1-13,3.8c1.7-1.8,3.7-3.1,5.4-4.9c-3.9,0.3-6.3,6.7-12.5,6.5
			c-0.2-3.1,2.6-3.2,2.7-6c-1.9,0-3.6,4.7-4.9,7.1c-3.9-0.6-5.2,1.3-8.7,1.1c1.5-2.5,4.3-3.6,5.4-6.5c-3.5,0.7-6.8,9.1-12.5,7.6
			c1.1-2.5,2.8-4.4,4.3-6.5c-2.1,0.4-4.7,5.1-7.1,7.1c-1.5-0.3-4.3,0.7-4.9-0.5c-2.6-0.2,1.2-1.6,1.1-2.7c-1.9,0.3-1.9,2.4-4.3,2.2
			c-2-1.1-0.8-1.8-3.3-0.5c-1.2-2.9-2.9-8.5,0-10.9c1.5-0.4,1.1,1.1,2.2,1.1c0.5-6.8,5.9-5.4,8.7-9.8c1.1,0.3,1.2,0.8,0.5,1.6
			c2.8-0.5,3.4-3.1,6.5-3.3c-0.2,1.3-0.9,2-0.5,3.8c3.3-1,5.4-8,11.4-8.1c0,2.2,0,4.3,0,6.5c2.6-2.3,5.2-7.4,9.2-6.5
			c0.4,2.2-0.8,2.8-0.5,4.9c1.5,0.1,3.9-3.7,8.1-2.7c0.2,2.2-0.5,3.5-1.1,4.9c3.6-1.2,7.6-4.1,12.5-2.2c-0.5,2.6-1.7,4.4-2.7,6.5
			c2.9,0.7,7.6-0.4,10.9,1.1c-1.6,6.7-6.9,9.8-12,13c0.6,2.3,3.1,2.7,3.3,5.4c-2.1,1.7-8.1,1.4-10.3,0c0,2.5,3.1,2,2.7,4.9
			c-3.2-0.1-5.2,0.9-8.7,0.5c0.1,2.5,2.4,2.7,2.2,5.4C167,304.6,162.5,304.8,160,302.9z"/>
	</g>
	<g>
		<g>
			<path d="M179.9,234.4c-0.1,0-0.2,0-0.3,0c-0.1,0-0.2,0-0.4-0.1c-0.1,0-0.2-0.1-0.4-0.1c-0.1,0-0.2-0.1-0.3-0.2l0.2-1.5
				c0.1,0.1,0.2,0.1,0.4,0.2c0.2,0.1,0.3,0.1,0.5,0.1c0.3,0,0.5-0.1,0.7-0.2c0.2-0.1,0.3-0.4,0.5-0.8l-3.4-6.8h1.9l2.3,5l2.1-5h1.9
				l-3.2,7c-0.2,0.4-0.4,0.8-0.6,1.1c-0.2,0.3-0.4,0.5-0.6,0.7c-0.2,0.2-0.4,0.3-0.6,0.4C180.4,234.4,180.2,234.4,179.9,234.4z"/>
			<path d="M188.4,228.9h0.7l2.8-3.8h2l-3.3,4.4l3.6,4.7h-2l-3-3.8h-0.9v3.8h-1.8v-9.2h1.8V228.9z"/>
			<path d="M195.1,234.3v-9.2h3.9c0.4,0,0.8,0.1,1.2,0.3c0.4,0.2,0.7,0.4,0.9,0.7c0.3,0.3,0.5,0.6,0.6,1c0.1,0.4,0.2,0.7,0.2,1.1
				c0,0.4-0.1,0.8-0.2,1.1c-0.1,0.4-0.3,0.7-0.6,1c-0.3,0.3-0.6,0.5-0.9,0.7c-0.4,0.2-0.7,0.3-1.2,0.3h-2.2v3.1H195.1z M196.9,229.7
				h2.1c0.3,0,0.6-0.1,0.8-0.4c0.2-0.3,0.3-0.6,0.3-1.1c0-0.2,0-0.4-0.1-0.6c-0.1-0.2-0.2-0.3-0.3-0.5c-0.1-0.1-0.2-0.2-0.4-0.3
				c-0.2-0.1-0.3-0.1-0.5-0.1h-2V229.7z"/>
			<path d="M205.2,225.1h1.6l3.5,9.2h-1.8l-0.9-2.3h-3.2l-0.8,2.3h-1.8L205.2,225.1z M207.2,230.8l-1.3-3.6l-1.3,3.6H207.2z"/>
			<path d="M210.2,224.1v-1.5h1.4v1.5H210.2z M211.3,234.3v-9.2h1.8v9.2H211.3z M212.7,224.1v-1.5h1.4v1.5H212.7z"/>
			<path d="M222.7,225.1v9.2H221v-3.9h-4.2v3.9H215v-9.2h1.8v3.7h4.2v-3.7H222.7z"/>
			<path d="M224.1,229.7c0-0.6,0.1-1.1,0.3-1.7c0.2-0.5,0.5-1,0.9-1.5c0.4-0.4,0.9-0.8,1.4-1c0.6-0.3,1.2-0.4,1.9-0.4
				c0.8,0,1.6,0.2,2.2,0.6c0.6,0.4,1.1,0.9,1.4,1.4l-1.4,0.9c-0.1-0.3-0.3-0.5-0.4-0.7c-0.2-0.2-0.4-0.3-0.6-0.4
				c-0.2-0.1-0.4-0.2-0.6-0.2c-0.2,0-0.4-0.1-0.6-0.1c-0.4,0-0.8,0.1-1.2,0.3c-0.3,0.2-0.6,0.4-0.8,0.7c-0.2,0.3-0.4,0.6-0.5,1
				c-0.1,0.4-0.2,0.7-0.2,1.1c0,0.4,0.1,0.8,0.2,1.2c0.1,0.4,0.3,0.7,0.6,1c0.2,0.3,0.5,0.5,0.9,0.7c0.3,0.2,0.7,0.3,1.1,0.3
				c0.2,0,0.4,0,0.6-0.1c0.2-0.1,0.4-0.1,0.6-0.2c0.2-0.1,0.4-0.3,0.6-0.4c0.2-0.2,0.3-0.4,0.4-0.6l1.5,0.8
				c-0.1,0.3-0.4,0.7-0.6,0.9c-0.3,0.3-0.6,0.5-0.9,0.7c-0.3,0.2-0.7,0.3-1.1,0.4c-0.4,0.1-0.8,0.1-1.1,0.1c-0.7,0-1.3-0.1-1.8-0.4
				c-0.5-0.3-1-0.6-1.4-1.1c-0.4-0.4-0.7-0.9-0.9-1.5C224.2,230.8,224.1,230.3,224.1,229.7z"/>
			<path d="M233.6,225.1h1.8v3.2h1.8c0.5,0,0.9,0.1,1.3,0.2c0.4,0.1,0.7,0.3,1,0.6c0.3,0.3,0.5,0.6,0.7,0.9c0.2,0.4,0.2,0.8,0.2,1.3
				c0,0.5-0.1,0.9-0.2,1.3c-0.2,0.4-0.4,0.7-0.7,0.9c-0.3,0.3-0.6,0.4-1,0.6c-0.4,0.1-0.8,0.2-1.2,0.2h-3.6V225.1z M235.4,232.8h1.7
				c0.5,0,0.9-0.1,1.1-0.4c0.3-0.3,0.4-0.6,0.4-1.1c0-0.4-0.1-0.8-0.4-1.1c-0.3-0.3-0.6-0.4-1.1-0.4h-1.7V232.8z"/>
			<path d="M243.4,228.9h0.7l2.8-3.8h2l-3.3,4.4l3.6,4.7h-2l-3-3.8h-0.9v3.8h-1.8v-9.2h1.8V228.9z"/>
			<path d="M252.7,225.1h1.6l3.5,9.2h-1.8l-0.9-2.3h-3.2l-0.8,2.3h-1.8L252.7,225.1z M254.7,230.8l-1.3-3.6l-1.3,3.6H254.7z"/>
			<path d="M264.5,225.1h1.6l3.5,9.2h-1.8l-0.9-2.3h-3.2l-0.8,2.3H261L264.5,225.1z M266.5,230.8l-1.3-3.6l-1.3,3.6H266.5z"/>
			<path d="M269.7,229.7c0-0.6,0.1-1.1,0.3-1.7c0.2-0.5,0.5-1,0.9-1.5c0.4-0.4,0.9-0.8,1.4-1c0.6-0.3,1.2-0.4,1.9-0.4
				c0.8,0,1.6,0.2,2.2,0.6c0.6,0.4,1.1,0.9,1.4,1.4l-1.4,0.9c-0.1-0.3-0.3-0.5-0.4-0.7c-0.2-0.2-0.4-0.3-0.6-0.4
				c-0.2-0.1-0.4-0.2-0.6-0.2c-0.2,0-0.4-0.1-0.6-0.1c-0.4,0-0.8,0.1-1.2,0.3c-0.3,0.2-0.6,0.4-0.8,0.7c-0.2,0.3-0.4,0.6-0.5,1
				c-0.1,0.4-0.2,0.7-0.2,1.1c0,0.4,0.1,0.8,0.2,1.2c0.1,0.4,0.3,0.7,0.5,1c0.2,0.3,0.5,0.5,0.9,0.7c0.3,0.2,0.7,0.3,1.1,0.3
				c0.2,0,0.4,0,0.6-0.1c0.2-0.1,0.4-0.1,0.6-0.2c0.2-0.1,0.4-0.3,0.6-0.4c0.2-0.2,0.3-0.4,0.4-0.6l1.5,0.8
				c-0.1,0.3-0.4,0.7-0.6,0.9c-0.3,0.3-0.6,0.5-0.9,0.7c-0.3,0.2-0.7,0.3-1.1,0.4c-0.4,0.1-0.8,0.1-1.1,0.1c-0.7,0-1.3-0.1-1.8-0.4
				c-0.5-0.3-1-0.6-1.4-1.1c-0.4-0.4-0.7-0.9-0.9-1.5C269.8,230.8,269.7,230.3,269.7,229.7z"/>
			<path d="M282.9,234.4c-0.7,0-1.3-0.1-1.8-0.4c-0.5-0.3-1-0.6-1.4-1c-0.4-0.4-0.7-0.9-0.9-1.5c-0.2-0.6-0.3-1.1-0.3-1.7
				c0-0.6,0.1-1.2,0.3-1.8c0.2-0.6,0.5-1.1,0.9-1.5c0.4-0.4,0.9-0.8,1.4-1c0.6-0.3,1.2-0.4,1.8-0.4c0.7,0,1.3,0.1,1.8,0.4
				c0.5,0.3,1,0.6,1.4,1.1c0.4,0.4,0.7,0.9,0.9,1.5c0.2,0.6,0.3,1.1,0.3,1.7c0,0.6-0.1,1.2-0.3,1.8c-0.2,0.6-0.5,1-0.9,1.5
				c-0.4,0.4-0.9,0.8-1.4,1C284.2,234.3,283.6,234.4,282.9,234.4z M280.3,229.7c0,0.4,0.1,0.8,0.2,1.2c0.1,0.4,0.3,0.7,0.5,1
				c0.2,0.3,0.5,0.5,0.8,0.7c0.3,0.2,0.7,0.3,1.1,0.3c0.4,0,0.8-0.1,1.1-0.3c0.3-0.2,0.6-0.4,0.8-0.7c0.2-0.3,0.4-0.6,0.5-1
				c0.1-0.4,0.2-0.7,0.2-1.1c0-0.4-0.1-0.8-0.2-1.2c-0.1-0.4-0.3-0.7-0.5-1c-0.2-0.3-0.5-0.5-0.8-0.7c-0.3-0.2-0.7-0.3-1.1-0.3
				c-0.4,0-0.8,0.1-1.2,0.3c-0.3,0.2-0.6,0.4-0.8,0.7c-0.2,0.3-0.4,0.6-0.5,1C280.3,229,280.3,229.4,280.3,229.7z"/>
			<path d="M295.7,234.3h-6.8v-9.2h1.8v7.6h3.6v-7.6h1.8v7.6h1.4v3.9h-1.7V234.3z"/>
			<path d="M298.6,234.3v-9.2h1.8v9.2H298.6z"/>
			<path d="M304.9,225.1h1.6l3.5,9.2h-1.8l-0.9-2.3h-3.2l-0.8,2.3h-1.8L304.9,225.1z M307,230.8l-1.3-3.6l-1.3,3.6H307z"/>
			<path d="M317.9,234.3h-6.8v-9.2h1.8v7.6h3.6v-7.6h1.8v7.6h1.4v3.9h-1.7V234.3z"/>
			<path d="M320.8,234.3v-9.2h1.8v9.2H320.8z"/>
			<path d="M329.3,234.3v-3.4h-1.5l-2.1,3.4h-2l2.3-3.6c-0.5-0.2-0.9-0.6-1.3-1c-0.3-0.5-0.5-1-0.5-1.6c0-0.4,0.1-0.8,0.2-1.1
				c0.1-0.3,0.3-0.7,0.6-0.9c0.3-0.3,0.6-0.5,0.9-0.6c0.4-0.2,0.7-0.2,1.2-0.2h3.8v9.2H329.3z M329.3,226.7h-1.9
				c-0.2,0-0.3,0-0.5,0.1c-0.2,0.1-0.3,0.2-0.4,0.3c-0.1,0.1-0.2,0.3-0.3,0.4c-0.1,0.2-0.1,0.4-0.1,0.6c0,0.4,0.1,0.7,0.4,1
				c0.2,0.2,0.5,0.4,0.9,0.4h1.9V226.7z"/>
			<path d="M343.5,232c0,0.4-0.1,0.7-0.2,1c-0.2,0.3-0.4,0.5-0.6,0.7c-0.3,0.2-0.6,0.3-0.9,0.5c-0.4,0.1-0.7,0.2-1.1,0.2h-4.4v-9.2
				h4.9c0.3,0,0.6,0.1,0.9,0.2c0.3,0.1,0.5,0.3,0.7,0.5c0.2,0.2,0.3,0.5,0.4,0.8c0.1,0.3,0.1,0.6,0.1,0.8c0,0.4-0.1,0.9-0.3,1.3
				c-0.2,0.4-0.6,0.7-1,0.9c0.5,0.2,0.9,0.4,1.3,0.8C343.3,230.9,343.5,231.4,343.5,232z M337.9,226.7v2.3h2.4
				c0.3,0,0.6-0.1,0.8-0.3c0.2-0.2,0.3-0.5,0.3-0.9c0-0.4-0.1-0.6-0.3-0.8c-0.2-0.2-0.4-0.3-0.7-0.3H337.9z M341.7,231.6
				c0-0.2,0-0.3-0.1-0.5c-0.1-0.2-0.1-0.3-0.2-0.4c-0.1-0.1-0.2-0.2-0.3-0.3c-0.1-0.1-0.3-0.1-0.4-0.1h-2.7v2.4h2.7
				c0.2,0,0.3,0,0.5-0.1c0.1-0.1,0.3-0.1,0.4-0.3c0.1-0.1,0.2-0.2,0.2-0.4C341.6,231.9,341.7,231.8,341.7,231.6z"/>
			<path d="M348.1,234.3v-9.2h1.8v9.2H348.1z"/>
			<path d="M351.3,229.7c0-0.6,0.1-1.1,0.3-1.7c0.2-0.5,0.5-1,0.9-1.5c0.4-0.4,0.9-0.8,1.4-1c0.6-0.3,1.2-0.4,1.9-0.4
				c0.8,0,1.6,0.2,2.2,0.6c0.6,0.4,1.1,0.9,1.4,1.4l-1.4,0.9c-0.1-0.3-0.3-0.5-0.4-0.7c-0.2-0.2-0.4-0.3-0.6-0.4
				c-0.2-0.1-0.4-0.2-0.6-0.2c-0.2,0-0.4-0.1-0.6-0.1c-0.4,0-0.8,0.1-1.2,0.3c-0.3,0.2-0.6,0.4-0.8,0.7c-0.2,0.3-0.4,0.6-0.5,1
				c-0.1,0.4-0.2,0.7-0.2,1.1c0,0.4,0.1,0.8,0.2,1.2c0.1,0.4,0.3,0.7,0.5,1c0.2,0.3,0.5,0.5,0.9,0.7c0.3,0.2,0.7,0.3,1.1,0.3
				c0.2,0,0.4,0,0.6-0.1c0.2-0.1,0.4-0.1,0.6-0.2c0.2-0.1,0.4-0.3,0.6-0.4c0.2-0.2,0.3-0.4,0.4-0.6l1.5,0.8
				c-0.1,0.3-0.4,0.7-0.6,0.9c-0.3,0.3-0.6,0.5-0.9,0.7c-0.3,0.2-0.7,0.3-1.1,0.4c-0.4,0.1-0.8,0.1-1.1,0.1c-0.7,0-1.3-0.1-1.8-0.4
				c-0.5-0.3-1-0.6-1.4-1.1c-0.4-0.4-0.7-0.9-0.9-1.5C351.4,230.8,351.3,230.3,351.3,229.7z"/>
			<path d="M360.8,225.1h7.6v9.2h-1.8v-7.6h-4v7.6h-1.8V225.1z"/>
			<path d="M373,225.1h1.6l3.5,9.2h-1.8l-0.9-2.3h-3.2l-0.8,2.3h-1.8L373,225.1z M375,230.8l-1.3-3.6l-1.3,3.6H375z"/>
			<path d="M386.8,225.1v9.2H385v-3.9h-4.2v3.9h-1.8v-9.2h1.8v3.7h4.2v-3.7H386.8z"/>
			<path d="M388.8,234.3v-9.2h1.8v9.2H388.8z"/>
			<path d="M391.5,224.1v-1.5h1.4v1.5H391.5z M392.6,234.3v-9.2h1.8v9.2H392.6z M394,224.1v-1.5h1.4v1.5H394z"/>
		</g>
		<g>
			<g>
				<path class="st6" d="M127.1,220.7h5.5c-2.3-17.7,5.5-13.4,14.9-62.1c-1.2-3.9-2.7-7.4-4.3-10.4h16.2
					c-1.9,35.7-1.9,49.5,8.5,72.6h4.2c5.7,7.6-1,13.7-10.4,18.2c-4.2,1.6-2.9,4-3.6,3.7c-1.4-0.6-2.9-2.9-0.8-5.9
					c3.2-4.3,4.5-8,2.2-12.8h-19.8c-2.3,4.8-1,8.5,2.2,12.8c2.2,2.9,0.7,5.3-0.8,5.9c-0.7,0.3,0.6-2.1-3.6-3.7
					C128.1,234.4,121.4,228.3,127.1,220.7z M147.9,220.7h5.6c0.9-18.5-0.2-37.6-3.6-53.1C138,201.5,144.4,213.3,147.9,220.7z"/>
			</g>
			<g>
				<path class="st6" d="M202.3,190.7c0,0.7,0.5,1,1,0.1c11.9-22.5,10.6-24.8,6.7-31.7h11.6c6.2,12.5-17.3,25.7-17,36.8
					c0.1,3.1,6.2,7.7,8.7,8.8c7.5,3.3,12.8,8.4,8.3,14.4h-11.6c5.6-7.5,1.5-12-6.6-18.8c-0.7-0.6-1.1-0.1-1.1,0.5
					c0.6,7.5,3,13.6,4.3,18.3h-12.8c1.4-5,3.7-10.8,4.3-18.2c0.1-0.8-0.5-1.1-1.1-0.5c-8.1,6.8-12.2,11.3-6.6,18.8h-11.6
					c-4.5-6,0.7-11,8.3-14.3c2.6-1.1,8.6-5.7,8.7-8.8c0.2-11.2-23.3-24.3-17-36.8h11.6c-3.9,6.8-5.2,9.2,6.7,31.7
					c0.4,0.8,1,0.5,1-0.2c0.6-5.6-2.2-25.6-4.3-31.6c3.5,0,8.3,0,12.8,0C204.5,165.2,201.7,185.2,202.3,190.7z"/>
				<path class="st6" d="M244.4,181.4c7.6,2.3,12.8,5.8,8.3,9.9h-11.6c5.2-8.2-2.3-7.4-3.5-9.9c-0.5,11.6,1.3,23.9,3.9,35.2h6.4
					c1.8-3.8,2.9-9.5,0.7-13.3c-1.4-2.6-1-6.2,0.2-6.7c0.5-0.2,1,3.1,3.3,5c4.6,3.8,8.4,10.7,5.9,17.6h-28.6c5.9-17.5,3.9-43.8,0-60
					H257c4.5,6-0.8,10.9-8.3,14.4c-3.3,1.3-2.3,3.2-2.9,2.9c-1.1-0.5-2.3-2.3-0.6-4.7c2.6-3.4,3.5-6.3,1.7-10.1h-5.7
					c-1.7,4.5-2.8,9.4-3.3,14.3C237.7,180,241.8,180.6,244.4,181.4z"/>
				<path class="st6" d="M264.7,219.2c5.9-17.5,3.9-43.8,0-60h27.8c4.5,6-0.8,10.9-8.3,14.4c-4.9,2.3-10.2,8.1-11,14.1
					c-0.6,5.6,2.2,25.6,4.3,31.5H264.7z M274.3,178c7.1-6.1,11.1-10.2,8.2-16.3h-5.7c-1.4,4.3-3.1,9.5-3.5,15.8
					C273.1,178.1,273.9,178.7,274.3,178z"/>
				<path class="st6" d="M314.6,181.4c7.6,2.3,12.8,5.8,8.3,9.9h-11.6c5.2-8.2-2.3-7.4-3.5-9.9c-0.5,11.6,1.3,23.9,3.9,35.2h6.4
					c1.8-3.8,2.9-9.5,0.7-13.3c-1.4-2.6-1-6.2,0.2-6.7c0.5-0.2,1,3.1,3.3,5c4.6,3.8,8.4,10.7,5.9,17.6h-28.6c5.9-17.5,3.9-43.8,0-60
					h27.8c4.5,6-0.8,10.9-8.3,14.4c-3.3,1.3-2.3,3.2-2.8,2.9c-1.1-0.5-2.3-2.3-0.6-4.7c2.6-3.4,3.5-6.3,1.7-10.1h-5.7
					c-1.7,4.5-2.8,9.4-3.3,14.3C307.9,180,312.1,180.6,314.6,181.4z"/>
				<path class="st6" d="M346.7,167.4c-1-3.1-2.1-5.9-3.4-8.3h12.8c-1.6,29.6-1.5,40.1,8,60h-12.8c1-15.4,0.1-31.7-2.7-44.6
					c-10.8,31.1-2.4,38.7-0.4,44.6h-12.8C332.5,202,338.9,208.2,346.7,167.4z"/>
				<path class="st6" d="M377.7,219.2c-1,0-2.8-0.3-3.2-1.1c1.1-1.6-1.9-6.1-5.3-15.2c-3.8-10.4-2.5-23.3,3.1-32.7
					c2.8-5.1,4.4-9,2.5-11h8.9c1,0,2.8,0.3,3.2,1.1c-1.1,1.6,1.9,6.1,5.3,15.2c3.8,10.4,2.5,23.3-3.1,32.7c-2.8,5.1-4.4,9-2.5,11
					H377.7z M375.1,171.8c-9.5,18.4,4.7,29,8,39.9c1.1-1.4,2.1-3.2,3.1-5.1c9.5-18.4-4.7-29-8-39.9
					C377.1,168.1,376.1,169.8,375.1,171.8z"/>
			</g>
		</g>
	</g>
</g>
</svg>
