<svg xmlns="http://www.w3.org/2000/svg" viewBox="0 0 422 80">
    <g fill="none" fill-rule="evenodd">
        <g fill="#FFF" fill-rule="nonzero">
            <path d="M73.263 5.869L44.572 51.34 15.894 5.87H1l43.572 72.54L88.157 5.87z"/>
            <path d="M44.279 30.424l12.034-18.41L44.279 1 32.763 12.013z"/>
        </g>
        <path fill="#F2F2F2" fill-rule="nonzero" d="M131.027 44.504l6.925-17.478h8.754v1.2c-.66 0-1.194.064-1.604.194-.41.13-.724.365-.944.705-.22.34-.365.804-.435 1.394-.07.59-.105 1.334-.105 2.233v11.632c0 1 .04 1.79.12 2.369.08.58.24 1.03.48 1.349.24.32.584.53 1.034.63.45.1 1.044.16 1.784.18v1.198h-11.273v-1.199c.74-.02 1.335-.085 1.784-.195.45-.11.8-.314 1.05-.614s.414-.725.494-1.274c.08-.55.12-1.294.12-2.234v-14.03h-.15l-8.064 19.846h-2.219l-8.334-19.846h-.12v13.82c0 1 .04 1.79.12 2.369.08.58.24 1.03.48 1.349.24.32.584.53 1.034.63.45.1 1.044.16 1.784.18v1.198h-9.234v-1.199c.74-.02 1.339-.085 1.799-.195.46-.11.814-.314 1.064-.614.25-.3.415-.725.495-1.274.08-.55.12-1.294.12-2.234V32.542c0-.839-.04-1.539-.12-2.098-.08-.56-.23-1.005-.45-1.334-.22-.33-.535-.56-.945-.69-.41-.13-.954-.195-1.633-.195v-1.199h9.083l6.986 17.478h.12zm24.523 10.313c-.22.44-.495.85-.824 1.23-.33.38-.7.704-1.11.974-.41.27-.834.484-1.274.644-.44.16-.88.24-1.319.24-.66 0-1.19-.16-1.589-.48-.4-.32-.6-.749-.6-1.289 0-.5.175-.889.525-1.169.35-.28.915-.45 1.694-.51 1.779-.14 2.928-.699 3.448-1.678l.81-1.56-5.307-13.13a22.19 22.19 0 0 0-.615-1.38c-.17-.34-.355-.604-.554-.794-.2-.19-.43-.315-.69-.375-.26-.06-.58-.1-.96-.12v-1.199h9.085v1.2c-.78 0-1.325.074-1.634.224-.31.15-.465.425-.465.825 0 .16.025.344.075.554.05.21.115.425.195.645l3.058 8.754h.12l2.578-5.846c.26-.62.48-1.134.66-1.544.18-.41.314-.76.404-1.05.09-.29.155-.524.195-.704.04-.18.06-.36.06-.54 0-.52-.145-.869-.435-1.049-.29-.18-.874-.27-1.754-.27v-1.199h7.226v1.2c-.4 0-.74.054-1.02.164-.28.11-.564.335-.854.675-.29.34-.61.844-.96 1.514s-.784 1.554-1.304 2.653l-6.865 14.39zm35.829-25.698l-6.895 20.991h-4.201l-6.866-20.991h4.772l4.187 14.009 4.201-14.01h4.802zm10.938 20.991h-4.201V29.12h4.201v20.99zm12.827-16.79v8.403h4.201c.576 0 1.118-.11 1.625-.33.507-.22.951-.52 1.332-.9.38-.38.68-.827.9-1.34a4.1 4.1 0 0 0 .33-1.632 4.1 4.1 0 0 0-.33-1.632 4.23 4.23 0 0 0-.9-1.34c-.38-.38-.825-.68-1.332-.9a4.047 4.047 0 0 0-1.625-.329h-4.201zm0 16.79h-4.201V29.12h8.402c.771 0 1.513.1 2.225.3a8.35 8.35 0 0 1 1.998.849 8.52 8.52 0 0 1 3.016 3.023c.366.624.649 1.293.849 2.005.2.713.3 1.454.3 2.225 0 1.152-.22 2.238-.659 3.257a8.482 8.482 0 0 1-1.8 2.672 8.482 8.482 0 0 1-2.672 1.8 8.147 8.147 0 0 1-3.257.66h-4.201v4.2zm26.437-12.77c1.28 0 2.309-.04 3.088-.12.78-.08 1.384-.246 1.814-.495.43-.25.734-.615.914-1.095.18-.48.32-1.129.42-1.948h1.11v8.784h-1.11c-.12-.8-.28-1.44-.48-1.919a2.19 2.19 0 0 0-.96-1.094c-.439-.25-1.033-.41-1.783-.48s-1.754-.105-3.013-.105v6.176c0 .64.085 1.18.255 1.619.17.44.455.794.854 1.064.4.27.93.46 1.59.57.659.11 1.468.165 2.428.165 1.139 0 2.103-.08 2.893-.24.79-.16 1.444-.44 1.963-.84.52-.4.94-.934 1.26-1.604.32-.67.59-1.514.809-2.533h1.2l-.48 6.865h-20.327v-1.199c.66-.02 1.2-.08 1.62-.18.419-.1.739-.27.959-.51.22-.24.37-.579.45-1.019.08-.44.12-1.009.12-1.708V31.643c0-.7-.036-1.264-.106-1.694-.07-.43-.205-.77-.405-1.02-.2-.249-.484-.419-.854-.509-.37-.09-.854-.155-1.454-.195v-1.199h18.947l.21 5.876h-1.289c-.12-.84-.31-1.534-.57-2.083-.26-.55-.62-.99-1.079-1.32-.46-.33-1.054-.56-1.784-.69-.73-.129-1.624-.194-2.683-.194h-3.388c-.52 0-.839.065-.959.195s-.18.435-.18.914v7.615zm26.472.659c.42-.54.7-.92.84-1.14.14-.22.21-.44.21-.66 0-.279-.115-.479-.345-.599-.23-.12-.615-.18-1.154-.18v-1.199h6.895v1.2c-.38.02-.72.06-1.02.12-.3.06-.599.174-.899.344-.3.17-.61.405-.93.705-.319.3-.689.69-1.108 1.169l-3.058 3.537 4.736 6.086c.46.6.91 1.005 1.35 1.215.44.21.989.314 1.648.314v1.2h-9.533v-1.2c.58 0 .984-.05 1.214-.15.23-.1.345-.29.345-.57 0-.22-.07-.454-.21-.704-.14-.25-.35-.574-.63-.974l-1.738-2.398-1.32 1.588c-.34.42-.61.76-.809 1.02-.2.26-.35.47-.45.63-.1.16-.165.284-.195.374a.807.807 0 0 0-.045.255c0 .34.145.58.435.72.29.14.755.21 1.394.21v1.198h-7.525v-1.199c.64 0 1.26-.095 1.859-.285.6-.19 1.07-.484 1.41-.884l4.166-4.887-5.006-6.355c-.38-.48-.715-.78-1.005-.9-.29-.12-.684-.18-1.184-.18v-1.199h9.144v1.2c-1.02 0-1.529.28-1.529.839 0 .2.11.46.33.78l2.128 2.997 1.59-2.038zm13.79-1.83h.12c1.32-1.498 3.039-2.248 5.157-2.248 1.16 0 2.224.205 3.193.615.97.41 1.809.98 2.518 1.709.71.73 1.26 1.599 1.65 2.608.39 1.01.584 2.114.584 3.313 0 1.2-.195 2.298-.585 3.298-.39.999-.934 1.868-1.634 2.608a7.33 7.33 0 0 1-2.503 1.724c-.97.41-2.023.614-3.163.614-1.938 0-3.417-.66-4.437-1.978h-.12v4.167c0 .8.04 1.439.12 1.919.08.48.25.849.51 1.109s.625.44 1.094.54c.47.1 1.094.16 1.874.18v1.258h-10.343v-1.259c.54-.02.98-.08 1.319-.18.34-.1.605-.28.795-.54.19-.26.32-.614.39-1.064.07-.45.104-1.034.104-1.753V41.656c0-.92-.02-1.794-.06-2.623-.04-.83-.09-1.414-.15-1.754-.1-.46-.324-.78-.674-.96-.35-.179-.945-.269-1.784-.269v-1.17l6.026-.839v2.129zm5.097-.539c-.64 0-1.249.14-1.828.42-.58.28-1.04.65-1.38 1.11-.34.459-.599 1.034-.779 1.723-.18.69-.27 1.434-.27 2.234v2.038c0 1.42.35 2.628 1.05 3.628.76 1.099 1.828 1.649 3.207 1.649 1.22 0 2.124-.505 2.714-1.514.59-1.01.884-2.574.884-4.692 0-4.397-1.2-6.596-3.598-6.596zm25.453 11.692c-1.819 2.059-4.087 3.088-6.805 3.088-1.24 0-2.364-.195-3.373-.584a7.478 7.478 0 0 1-2.593-1.65 7.484 7.484 0 0 1-1.679-2.532c-.4-.98-.6-2.07-.6-3.268 0-1.24.21-2.374.63-3.403a7.777 7.777 0 0 1 1.784-2.668 8.257 8.257 0 0 1 2.728-1.754c1.05-.42 2.203-.63 3.463-.63 2.118 0 3.767.57 4.946 1.71 1.18 1.139 1.769 2.737 1.769 4.796 0 .32-.05.515-.15.585-.1.07-.38.105-.84.105h-9.653c-.08.18-.12.51-.12.989 0 1.959.425 3.508 1.274 4.647.85 1.139 2.004 1.709 3.463 1.709.84 0 1.674-.19 2.503-.57.83-.38 1.634-.92 2.414-1.619l.84 1.05zm-5.816-7.884c.8 0 1.314-.045 1.544-.135.23-.09.345-.305.345-.645 0-.88-.25-1.599-.75-2.158-.5-.56-1.129-.84-1.888-.84-.86 0-1.624.355-2.294 1.065-.67.71-1.104 1.613-1.304 2.713h4.347zm14.9 6.026c0 .78.035 1.394.105 1.843.07.45.215.795.435 1.035.22.24.54.394.96.464.419.07.978.105 1.678.105v1.2h-10.013v-1.2c.6-.04 1.079-.1 1.439-.18.36-.08.63-.24.81-.48.18-.24.294-.584.344-1.034.05-.45.075-1.054.075-1.813v-3.658c0-1.239-.03-2.228-.09-2.968-.06-.74-.19-1.309-.39-1.709-.2-.4-.484-.664-.854-.794s-.855-.195-1.454-.195v-1.05l5.996-1.109.48 3.448h.12c.539-1.06 1.248-1.899 2.128-2.518.88-.62 1.809-.93 2.788-.93.76 0 1.38.19 1.859.57.48.38.72.86.72 1.44 0 .639-.186 1.178-.555 1.618-.37.44-.875.66-1.514.66-.3 0-.57-.06-.81-.18a3.723 3.723 0 0 1-.644-.405c-.19-.15-.38-.29-.57-.42a1.024 1.024 0 0 0-.585-.195c-.38 0-.74.25-1.079.75-.34.5-.62 1.17-.84 2.008-.16.6-.29 1.275-.389 2.024-.1.75-.15 1.494-.15 2.234v1.439zm14.9-.27c0 .8.03 1.439.09 1.919s.18.849.36 1.109.44.434.78.524c.339.09.799.145 1.378.165v1.2h-9.443v-1.2c.56-.02 1.014-.085 1.364-.195.35-.11.62-.29.81-.54.189-.249.319-.599.389-1.048.07-.45.105-1.025.105-1.724v-3.688c0-1.159-.02-2.113-.06-2.863-.04-.75-.09-1.264-.15-1.544-.1-.5-.325-.83-.675-.99-.35-.16-.984-.239-1.903-.239v-1.02l6.955-1.139v11.273zm-4.407-17.628c0-.66.225-1.214.675-1.664.45-.45.994-.675 1.633-.675.66 0 1.215.225 1.664.675.45.45.675 1.004.675 1.664 0 .64-.225 1.184-.675 1.634-.45.45-1.004.674-1.664.674-.64 0-1.184-.225-1.633-.674a2.225 2.225 0 0 1-.675-1.634zm23.714 19.756c-1.819 2.059-4.087 3.088-6.805 3.088-1.24 0-2.364-.195-3.373-.584a7.478 7.478 0 0 1-2.593-1.65 7.484 7.484 0 0 1-1.68-2.532c-.399-.98-.599-2.07-.599-3.268 0-1.24.21-2.374.63-3.403a7.777 7.777 0 0 1 1.783-2.668 8.257 8.257 0 0 1 2.729-1.754c1.049-.42 2.203-.63 3.462-.63 2.119 0 3.768.57 4.947 1.71 1.18 1.139 1.769 2.737 1.769 4.796 0 .32-.05.515-.15.585-.1.07-.38.105-.84.105h-9.653c-.08.18-.12.51-.12.989 0 1.959.425 3.508 1.274 4.647.85 1.139 2.004 1.709 3.463 1.709.84 0 1.674-.19 2.503-.57.83-.38 1.634-.92 2.413-1.619l.84 1.05zm-5.816-7.884c.8 0 1.314-.045 1.544-.135.23-.09.345-.305.345-.645 0-.88-.25-1.599-.75-2.158-.5-.56-1.13-.84-1.889-.84-.86 0-1.624.355-2.293 1.065-.67.71-1.104 1.613-1.304 2.713h4.347zm14.87 5.786c0 .82.025 1.464.075 1.933.05.47.16.83.33 1.08.17.25.43.414.779.494.35.08.824.14 1.424.18v1.2h-9.444v-1.2c.58-.04 1.045-.1 1.394-.18.35-.08.62-.24.81-.48.19-.24.315-.579.375-1.019.06-.44.09-1.039.09-1.798v-3.748c0-1.179-.02-2.133-.06-2.863-.04-.73-.09-1.224-.15-1.484a2.29 2.29 0 0 0-.24-.644.96.96 0 0 0-.45-.39c-.2-.09-.45-.15-.75-.18s-.679-.045-1.139-.045v-1.02l5.787-1.139.39 2.639h.12a7.018 7.018 0 0 1 2.338-1.949c.9-.46 1.888-.69 2.968-.69 1.279 0 2.313.175 3.103.525.789.35 1.494.934 2.113 1.754.34.46.64 1.054.9 1.784s.39 1.734.39 3.013v4.227c0 .82.024 1.464.074 1.933.05.47.16.83.33 1.08.17.25.425.414.764.494.34.08.8.14 1.38.18v1.2h-9.384v-1.2c.6-.02 1.074-.075 1.424-.165.35-.09.614-.254.794-.494.18-.24.3-.585.36-1.035.06-.45.09-1.044.09-1.783v-4.078c0-1.019-.06-1.878-.18-2.578s-.315-1.264-.584-1.694a2.33 2.33 0 0 0-1.065-.93c-.44-.189-.989-.284-1.649-.284-.64 0-1.189.18-1.648.54-.46.36-.86.86-1.2 1.499-.18.36-.334.824-.464 1.394a8 8 0 0 0-.195 1.784v4.137zm29.92 2.398c-.76.84-1.704 1.49-2.834 1.949-1.129.46-2.353.69-3.672.69-1.22 0-2.328-.195-3.328-.585-1-.39-1.859-.935-2.578-1.634a7.123 7.123 0 0 1-1.664-2.533c-.39-.99-.585-2.084-.585-3.283 0-1.24.21-2.369.63-3.388a7.602 7.602 0 0 1 1.769-2.623c.76-.73 1.669-1.294 2.728-1.694 1.06-.4 2.228-.6 3.508-.6.899 0 1.733.09 2.503.27.77.18 1.429.43 1.979.75s.984.694 1.304 1.124c.32.43.48.894.48 1.394 0 .58-.166 1.04-.495 1.38-.33.339-.775.509-1.334.509-.46 0-.865-.12-1.215-.36-.35-.24-.694-.63-1.034-1.17-.3-.479-.554-.859-.764-1.138a3.852 3.852 0 0 0-.585-.645c-.18-.15-.36-.25-.54-.3-.18-.05-.4-.075-.66-.075-1.158 0-2.058.54-2.697 1.62-.64 1.078-.96 2.587-.96 4.526 0 2.079.385 3.678 1.155 4.797.769 1.12 1.873 1.679 3.312 1.679a6.91 6.91 0 0 0 2.459-.465 8.867 8.867 0 0 0 2.338-1.334l.78 1.14zm17.268-.3c-1.819 2.059-4.087 3.088-6.806 3.088-1.239 0-2.363-.195-3.372-.584a7.478 7.478 0 0 1-2.594-1.65 7.484 7.484 0 0 1-1.678-2.532c-.4-.98-.6-2.07-.6-3.268 0-1.24.21-2.374.63-3.403a7.777 7.777 0 0 1 1.783-2.668 8.257 8.257 0 0 1 2.729-1.754c1.049-.42 2.203-.63 3.462-.63 2.119 0 3.768.57 4.947 1.71 1.18 1.139 1.769 2.737 1.769 4.796 0 .32-.05.515-.15.585-.1.07-.38.105-.84.105h-9.653c-.08.18-.12.51-.12.989 0 1.959.425 3.508 1.274 4.647.85 1.139 2.004 1.709 3.463 1.709.84 0 1.674-.19 2.503-.57.83-.38 1.634-.92 2.413-1.619l.84 1.05zm-5.816-7.884c.8 0 1.314-.045 1.544-.135.23-.09.345-.305.345-.645 0-.88-.25-1.599-.75-2.158-.5-.56-1.13-.84-1.889-.84-.86 0-1.624.355-2.293 1.065-.67.71-1.104 1.613-1.304 2.713h4.347z"/>
        <path fill="#FFF" d="M172.532 24.515v-4.258h53.294v4.258zm0 33.808v-4.258h53.294v4.258z"/>
    </g>
</svg>
