<svg xmlns="http://www.w3.org/2000/svg" viewBox="0 0 443 220">
    <g fill="none" fill-rule="evenodd">
        <g fill="#B99962" fill-rule="nonzero">
            <path d="M266.888 8.006l-43.096 65.436-43.077-65.436h-22.373l65.45 104.39L289.26 8.006z"/>
            <path d="M223.351 43.34l18.076-26.492L223.351 1l-17.298 15.848z"/>
        </g>
        <g fill-rule="nonzero">
            <path fill="#FFF" d="M25.384 196.629l10.13-26.052h12.803v1.787c-.964 0-1.746.097-2.346.29-.599.195-1.06.545-1.381 1.051-.322.507-.533 1.2-.636 2.078-.102.879-.153 1.988-.153 3.33v17.337c0 1.49.058 2.666.175 3.53.117.864.35 1.535.702 2.011.35.477.855.79 1.513.939.657.149 1.527.238 2.609.268v1.787H32.312v-1.787c1.082-.03 1.952-.127 2.61-.29.657-.164 1.169-.47 1.534-.917.365-.447.607-1.08.724-1.899.116-.82.175-1.929.175-3.329V175.85h-.22L25.34 205.432h-3.244L9.906 175.85H9.73v20.6c0 1.49.059 2.666.175 3.53.117.864.351 1.535.702 2.011.35.477.855.79 1.513.939.658.149 1.527.238 2.609.268v1.787H1.223v-1.787c1.082-.03 1.959-.127 2.631-.29.673-.164 1.192-.47 1.557-.917.365-.447.607-1.08.723-1.899.117-.82.176-1.929.176-3.329v-17.964c0-1.25-.059-2.294-.176-3.128-.116-.834-.336-1.497-.657-1.988-.322-.492-.782-.834-1.382-1.028-.599-.194-1.395-.29-2.39-.29v-1.788h13.287l10.217 26.052h.175zm35.869 15.372a8.776 8.776 0 0 1-1.206 1.832 7.937 7.937 0 0 1-1.623 1.452c-.599.403-1.22.723-1.863.961a5.52 5.52 0 0 1-1.93.358c-.964 0-1.739-.239-2.324-.715-.584-.477-.877-1.117-.877-1.922 0-.745.256-1.326.768-1.743.511-.417 1.337-.67 2.477-.76 2.602-.208 4.283-1.042 5.043-2.502l1.184-2.323-7.761-19.573c-.351-.864-.65-1.549-.9-2.055-.248-.507-.518-.902-.81-1.185a2.13 2.13 0 0 0-1.009-.558 8.158 8.158 0 0 0-1.403-.179v-1.787h13.286v1.787c-1.14 0-1.937.112-2.39.335-.453.224-.68.633-.68 1.23 0 .237.037.513.11.826.073.313.168.633.285.96l4.473 13.049h.175l3.771-8.714c.38-.923.702-1.69.965-2.301a14.085 14.085 0 0 0 .877-2.614c.058-.268.088-.537.088-.805 0-.774-.212-1.296-.636-1.564-.424-.268-1.28-.402-2.565-.402v-1.787h10.567v1.787c-.584 0-1.081.082-1.49.246-.41.164-.826.499-1.25 1.005-.424.507-.892 1.259-1.403 2.257-.512.998-1.148 2.316-1.908 3.955L61.253 212z"/>
            <path fill="#B99962" d="M115.84 173.696l-10.084 31.29h-6.145l-10.041-31.29h6.98l6.123 20.881 6.145-20.88h7.023zm16 31.29h-6.145v-31.29h6.144v31.29zm18.76-25.028v12.525h6.145c.842 0 1.634-.164 2.377-.491a6.215 6.215 0 0 0 3.265-3.339 6.211 6.211 0 0 0 .481-2.432c0-.859-.16-1.67-.481-2.433a6.215 6.215 0 0 0-3.265-3.338 5.825 5.825 0 0 0-2.377-.492H150.6zm0 25.027h-6.145v-31.289h12.29c1.128 0 2.212.15 3.254.448 1.042.298 2.017.72 2.923 1.265.906.546 1.734 1.2 2.484 1.964.749.764 1.391 1.61 1.927 2.542.535.93.949 1.927 1.241 2.99.293 1.061.44 2.166.44 3.316 0 1.716-.322 3.334-.964 4.854a12.659 12.659 0 0 1-2.634 3.982 12.396 12.396 0 0 1-3.907 2.684c-1.492.655-3.08.982-4.764.982H150.6v6.262z"/>
            <path fill="#FFF" d="M191.452 185.949c1.871 0 3.376-.06 4.517-.179 1.14-.119 2.024-.365 2.652-.737.629-.372 1.075-.916 1.338-1.631.263-.715.468-1.683.614-2.905h1.622v13.093h-1.622c-.176-1.191-.41-2.145-.702-2.86a3.245 3.245 0 0 0-1.403-1.63c-.643-.373-1.513-.611-2.61-.716-1.095-.104-2.564-.156-4.406-.156v9.205c0 .954.124 1.758.373 2.413a3.31 3.31 0 0 0 1.25 1.587c.584.402 1.359.685 2.324.849.964.164 2.148.246 3.551.246 1.667 0 3.077-.12 4.232-.358 1.154-.238 2.112-.655 2.872-1.251.76-.596 1.374-1.393 1.841-2.39.468-.999.863-2.257 1.184-3.777h1.754l-.701 10.233h-29.73v-1.787c.965-.03 1.754-.12 2.368-.268.614-.15 1.082-.402 1.403-.76.322-.357.541-.864.658-1.52.117-.655.175-1.504.175-2.546v-20.645c0-1.043-.05-1.885-.153-2.525-.102-.64-.3-1.147-.592-1.52-.292-.372-.709-.625-1.25-.76-.54-.133-1.25-.23-2.127-.29v-1.787h27.713l.307 8.759h-1.886c-.175-1.252-.453-2.287-.833-3.106-.38-.82-.906-1.475-1.578-1.966-.673-.492-1.542-.834-2.61-1.028-1.066-.194-2.374-.29-3.924-.29h-4.955c-.76 0-1.227.096-1.403.29-.175.194-.263.648-.263 1.363v11.35zm38.719.983c.614-.804 1.023-1.37 1.228-1.698.204-.328.306-.655.306-.983 0-.417-.168-.715-.504-.894-.336-.179-.899-.268-1.688-.268v-1.787h10.085v1.787c-.555.03-1.052.09-1.49.179a4.38 4.38 0 0 0-1.316.514 7.263 7.263 0 0 0-1.36 1.05 24.759 24.759 0 0 0-1.622 1.743l-4.472 5.273 6.928 9.07c.672.895 1.33 1.498 1.973 1.81.643.313 1.447.47 2.412.47v1.787h-13.944v-1.787c.847 0 1.44-.075 1.776-.224.336-.149.504-.432.504-.849 0-.327-.102-.677-.307-1.05a18.234 18.234 0 0 0-.92-1.452l-2.544-3.575-1.93 2.368a81.65 81.65 0 0 0-1.183 1.52c-.293.387-.512.7-.658.938a2.922 2.922 0 0 0-.285.559c-.044.134-.066.26-.066.38 0 .506.212.863.636 1.072.424.209 1.103.313 2.039.313v1.787h-11.006v-1.787c.935 0 1.841-.142 2.718-.425.877-.283 1.564-.722 2.061-1.318l6.095-7.284-7.323-9.473c-.555-.715-1.045-1.162-1.468-1.34-.424-.18-1.002-.269-1.732-.269v-1.787h13.373v1.787c-1.49 0-2.236.417-2.236 1.251 0 .298.16.686.482 1.162l3.114 4.469 2.324-3.039zm20.17-2.726h.176c1.93-2.234 4.443-3.351 7.542-3.351 1.695 0 3.252.305 4.67.916 1.417.61 2.645 1.46 3.683 2.547 1.038 1.087 1.842 2.383 2.412 3.888.57 1.504.855 3.15.855 4.937 0 1.788-.285 3.426-.855 4.916-.57 1.49-1.367 2.785-2.39 3.888a10.72 10.72 0 0 1-3.662 2.57c-1.417.61-2.96.915-4.626.915-2.835 0-4.998-.983-6.49-2.95h-.175v6.212c0 1.192.059 2.145.176 2.86.117.715.365 1.266.745 1.653.38.388.914.656 1.6.805.688.149 1.601.238 2.741.268v1.877h-15.128v-1.877c.79-.03 1.433-.12 1.93-.268.497-.15.884-.417 1.162-.805.277-.387.467-.916.57-1.586.102-.67.153-1.542.153-2.614v-16.623c0-1.37-.029-2.674-.087-3.91-.059-1.237-.132-2.108-.22-2.614-.146-.686-.475-1.162-.986-1.43-.512-.268-1.382-.402-2.61-.402v-1.743l8.814-1.251v3.172zm7.455-.804c-.936 0-1.827.208-2.675.626-.848.417-1.52.968-2.017 1.653-.497.685-.877 1.542-1.14 2.57a13.394 13.394 0 0 0-.395 3.328v3.04c0 2.114.512 3.917 1.535 5.406 1.11 1.639 2.675 2.458 4.692 2.458 1.783 0 3.106-.752 3.968-2.257.862-1.504 1.294-3.835 1.294-6.993 0-6.554-1.754-9.831-5.262-9.831zm37.227 17.427c-2.66 3.069-5.978 4.603-9.953 4.603-1.813 0-3.457-.29-4.933-.871-1.477-.581-2.74-1.4-3.793-2.458-1.053-1.058-1.871-2.316-2.456-3.776-.584-1.46-.877-3.083-.877-4.87 0-1.848.307-3.538.921-5.073a11.609 11.609 0 0 1 2.61-3.977 12.055 12.055 0 0 1 3.99-2.614c1.534-.625 3.222-.938 5.064-.938 3.099 0 5.51.849 7.235 2.547 1.725 1.698 2.587 4.081 2.587 7.15 0 .476-.073.767-.22.871-.145.104-.555.156-1.227.156h-14.12c-.116.269-.175.76-.175 1.475 0 2.92.621 5.228 1.864 6.926 1.242 1.699 2.93 2.548 5.064 2.548 1.228 0 2.449-.283 3.662-.85 1.213-.566 2.39-1.37 3.53-2.413l1.227 1.564zm-8.506-11.752c1.169 0 1.922-.067 2.258-.201.336-.134.504-.454.504-.96 0-1.312-.365-2.384-1.096-3.218-.73-.834-1.652-1.251-2.762-1.251-1.258 0-2.376.528-3.355 1.586-.98 1.058-1.615 2.406-1.907 4.044h6.358zm21.793 8.982c0 1.162.05 2.078.153 2.748.102.67.314 1.184.636 1.542.322.357.79.588 1.403.692.614.105 1.433.157 2.456.157v1.787h-14.646v-1.787c.877-.06 1.579-.15 2.105-.268.526-.12.92-.358 1.184-.715.263-.358.431-.872.504-1.542.073-.67.11-1.571.11-2.703v-5.452c0-1.847-.044-3.322-.132-4.424-.088-1.102-.278-1.951-.57-2.547-.292-.596-.709-.99-1.25-1.184-.54-.194-1.25-.29-2.126-.29v-1.565l8.77-1.653.701 5.139h.175c.79-1.58 1.828-2.83 3.114-3.754 1.286-.923 2.645-1.385 4.078-1.385 1.11 0 2.017.283 2.718.849.702.566 1.053 1.28 1.053 2.145 0 .953-.27 1.757-.811 2.413-.541.655-1.28.983-2.215.983a2.57 2.57 0 0 1-1.184-.268 5.432 5.432 0 0 1-.943-.603 15.19 15.19 0 0 0-.833-.626 1.479 1.479 0 0 0-.855-.29c-.555 0-1.081.372-1.578 1.117-.497.744-.906 1.742-1.228 2.994-.234.893-.424 1.899-.57 3.016a25.638 25.638 0 0 0-.22 3.329v2.145zm21.793-.402c0 1.191.043 2.145.131 2.86.088.715.263 1.266.526 1.653s.643.648 1.14.782c.497.134 1.17.216 2.017.246v1.787h-13.812v-1.787c.819-.03 1.484-.127 1.995-.29.512-.164.906-.433 1.184-.805.278-.372.468-.894.57-1.564.102-.67.154-1.527.154-2.57v-5.496c0-1.728-.03-3.15-.088-4.267-.059-1.117-.132-1.885-.22-2.302-.145-.744-.474-1.236-.986-1.474-.511-.239-1.44-.358-2.784-.358v-1.52l10.173-1.697v16.802zm-6.446-26.276c0-.983.329-1.81.986-2.48a3.224 3.224 0 0 1 2.39-1.005c.965 0 1.776.335 2.434 1.005.658.67.986 1.497.986 2.48 0 .954-.328 1.765-.986 2.436-.658.67-1.47 1.005-2.434 1.005a3.224 3.224 0 0 1-2.39-1.005c-.657-.67-.986-1.482-.986-2.436zm34.684 29.448c-2.66 3.069-5.978 4.603-9.953 4.603-1.813 0-3.457-.29-4.933-.871-1.477-.581-2.74-1.4-3.793-2.458-1.053-1.058-1.871-2.316-2.456-3.776-.584-1.46-.877-3.083-.877-4.87 0-1.848.307-3.538.921-5.073a11.609 11.609 0 0 1 2.609-3.977 12.055 12.055 0 0 1 3.99-2.614c1.535-.625 3.223-.938 5.065-.938 3.099 0 5.51.849 7.235 2.547 1.725 1.698 2.587 4.081 2.587 7.15 0 .476-.073.767-.22.871-.145.104-.555.156-1.227.156h-14.12c-.116.269-.175.76-.175 1.475 0 2.92.621 5.228 1.864 6.926 1.242 1.699 2.93 2.548 5.064 2.548 1.228 0 2.449-.283 3.662-.85 1.213-.566 2.39-1.37 3.53-2.413l1.227 1.564zm-8.506-11.752c1.169 0 1.922-.067 2.258-.201.336-.134.504-.454.504-.96 0-1.312-.365-2.384-1.096-3.218-.73-.834-1.652-1.251-2.763-1.251-1.257 0-2.375.528-3.354 1.586-.98 1.058-1.615 2.406-1.907 4.044h6.358zm21.749 8.624c0 1.222.036 2.183.11 2.883.072.7.233 1.236.482 1.608.248.373.628.619 1.14.738.511.119 1.206.208 2.083.268v1.787h-13.813v-1.787c.848-.06 1.528-.15 2.04-.268.51-.12.905-.358 1.183-.715.278-.358.46-.864.548-1.52.088-.655.132-1.549.132-2.68v-5.587c0-1.757-.03-3.18-.088-4.267-.058-1.087-.131-1.825-.22-2.212a3.454 3.454 0 0 0-.35-.96 1.414 1.414 0 0 0-.658-.582c-.292-.134-.657-.223-1.096-.268a16.974 16.974 0 0 0-1.666-.067v-1.52l8.463-1.697.57 3.932h.175c.965-1.251 2.105-2.22 3.42-2.904 1.316-.686 2.763-1.028 4.341-1.028 1.871 0 3.384.26 4.539.782 1.154.521 2.185 1.393 3.091 2.614.497.685.936 1.571 1.316 2.659.38 1.087.57 2.584.57 4.49v6.301c0 1.222.036 2.183.11 2.883.072.7.233 1.236.482 1.608.248.373.62.619 1.118.738.497.119 1.169.208 2.017.268v1.787h-13.725v-1.787c.877-.03 1.571-.112 2.083-.246.511-.134.899-.38 1.162-.737.263-.358.438-.872.526-1.542.088-.67.132-1.556.132-2.659v-6.077c0-1.52-.088-2.8-.263-3.843-.176-1.043-.46-1.884-.856-2.525-.394-.64-.913-1.102-1.556-1.385-.643-.283-1.447-.425-2.412-.425-.935 0-1.74.269-2.412.805-.672.536-1.257 1.28-1.754 2.234-.263.536-.49 1.229-.68 2.078-.19.849-.284 1.735-.284 2.659v6.166zm43.761 3.575c-1.11 1.252-2.492 2.22-4.144 2.905-1.651.685-3.442 1.028-5.371 1.028-1.783 0-3.406-.29-4.867-.872-1.462-.58-2.719-1.392-3.771-2.435-1.053-1.043-1.864-2.301-2.434-3.776-.57-1.475-.855-3.106-.855-4.893 0-1.847.307-3.53.92-5.05.615-1.519 1.477-2.822 2.588-3.91 1.11-1.087 2.44-1.929 3.99-2.524 1.55-.596 3.26-.894 5.13-.894 1.316 0 2.536.134 3.662.402 1.125.268 2.09.64 2.894 1.117.804.477 1.44 1.035 1.907 1.676.468.64.702 1.333.702 2.078 0 .864-.241 1.549-.724 2.055-.482.507-1.132.76-1.95.76-.673 0-1.265-.179-1.777-.536-.511-.358-1.016-.939-1.513-1.743a25.183 25.183 0 0 0-1.118-1.698c-.307-.417-.592-.737-.855-.96a2.132 2.132 0 0 0-.79-.448 3.587 3.587 0 0 0-.964-.111c-1.695 0-3.01.804-3.946 2.413-.936 1.608-1.403 3.858-1.403 6.747 0 3.098.562 5.482 1.688 7.15 1.125 1.668 2.74 2.502 4.845 2.502 1.199 0 2.397-.23 3.596-.692a12.908 12.908 0 0 0 3.42-1.989l1.14 1.698zm25.257-.447c-2.66 3.069-5.978 4.603-9.954 4.603-1.812 0-3.456-.29-4.933-.871-1.476-.581-2.74-1.4-3.793-2.458-1.052-1.058-1.87-2.316-2.455-3.776s-.877-3.083-.877-4.87c0-1.848.307-3.538.92-5.073a11.609 11.609 0 0 1 2.61-3.977 12.055 12.055 0 0 1 3.99-2.614c1.535-.625 3.223-.938 5.065-.938 3.098 0 5.51.849 7.235 2.547 1.724 1.698 2.587 4.081 2.587 7.15 0 .476-.073.767-.22.871-.146.104-.555.156-1.227.156h-14.12c-.117.269-.175.76-.175 1.475 0 2.92.621 5.228 1.864 6.926 1.242 1.699 2.93 2.548 5.064 2.548 1.228 0 2.448-.283 3.662-.85 1.213-.566 2.39-1.37 3.53-2.413l1.227 1.564zm-8.507-11.752c1.17 0 1.922-.067 2.259-.201.336-.134.504-.454.504-.96 0-1.312-.366-2.384-1.096-3.218-.731-.834-1.652-1.251-2.763-1.251-1.257 0-2.375.528-3.354 1.586-.98 1.058-1.615 2.406-1.908 4.044h6.358z"/>
        </g>
        <path fill="#B99962" d="M89.343 166.958v-6.424h79.723v6.424zm0 50.996v-6.423h79.723v6.423z"/>
    </g>
</svg>
